<?xml version="1.0" encoding="utf-8"?>
<!-- Generator: Adobe Illustrator 16.0.0, SVG Export Plug-In . SVG Version: 6.00 Build 0)  -->
<!DOCTYPE svg PUBLIC "-//W3C//DTD SVG 1.1//EN" "http://www.w3.org/Graphics/SVG/1.1/DTD/svg11.dtd">
<svg version="1.1" id="Layer_1" xmlns="http://www.w3.org/2000/svg" xmlns:xlink="http://www.w3.org/1999/xlink" x="0px" y="0px"
	 width="67.729px" height="67.733px" viewBox="0 0 67.729 67.733" enable-background="new 0 0 67.729 67.733" xml:space="preserve">
<g>
	<g>
		<g>
			<path fill="#FFFFFF" d="M57.812,9.921C51.417,3.526,42.912,0,33.865,0S16.312,3.526,9.917,9.921C3.519,16.315,0,24.821,0,33.868
				c0,9.043,3.519,17.549,9.917,23.943c6.395,6.398,14.9,9.922,23.947,9.922c3.265,0,6.5-0.47,9.614-1.389l0.973-0.288l-0.594-0.821
				c-0.84-1.169-1.411-2.467-1.695-3.859l-0.155-0.756l-0.742,0.203c-2.406,0.662-4.896,0.996-7.401,0.996
				c-15.411,0-27.954-12.54-27.954-27.951c0-15.415,12.543-27.954,27.954-27.954s27.954,12.539,27.954,27.954
				c0,5.653-1.691,11.105-4.885,15.768l-0.439,0.635l0.666,0.391c1.214,0.719,2.293,1.705,3.11,2.855l0.59,0.826l0.583-0.826
				c4.113-5.758,6.285-12.551,6.285-19.648C67.729,24.821,64.207,16.315,57.812,9.921"/>
			<path fill="#FFFFFF" d="M52.029,53.036c-3.496,0-6.342,2.842-6.342,6.338s2.846,6.342,6.342,6.342s6.341-2.846,6.341-6.342
				S55.525,53.036,52.029,53.036"/>
		</g>
	</g>
	<g>
		<path fill="#FFFFFF" d="M31.596,26.005L31.596,26.005c1.761,0,3.189,1.428,3.189,3.189v0.08h0.091
			c0.887-1.592,3.059-3.27,6.296-3.27c6.731,0,7.976,4.191,7.976,9.643v7.91c0,1.762-1.428,3.189-3.189,3.189h-0.27
			c-1.761,0-3.189-1.428-3.189-3.189v-6.651c0-2.347-0.048-5.366-3.458-5.366c-3.462,0-3.99,2.556-3.99,5.195v6.822
			c0,1.762-1.428,3.189-3.189,3.189h-0.267c-1.761,0-3.189-1.428-3.189-3.189V29.194C28.407,27.433,29.834,26.005,31.596,26.005z"/>
		<path fill="#FFFFFF" d="M23.261,26.005L23.261,26.005c1.909,0,3.457,1.548,3.457,3.457V43.29c0,1.909-1.547,3.457-3.457,3.457l0,0
			c-1.909,0-3.457-1.548-3.457-3.457V29.462C19.804,27.553,21.352,26.005,23.261,26.005z"/>
		<path fill="#FFFFFF" d="M26.717,20.243c0,1.91-1.547,3.457-3.457,3.457c-1.91,0-3.457-1.547-3.457-3.457
			c0-1.909,1.547-3.457,3.457-3.457C25.17,16.786,26.717,18.334,26.717,20.243z"/>
	</g>
</g>
</svg>
