<?xml version="1.0" encoding="utf-8"?>
<!-- Generator: Adobe Illustrator 26.0.3, SVG Export Plug-In . SVG Version: 6.00 Build 0)  -->
<svg version="1.1" id="Layer_1" xmlns="http://www.w3.org/2000/svg" xmlns:xlink="http://www.w3.org/1999/xlink" x="0px" y="0px"
	 viewBox="0 0 2271.888 553.766" style="enable-background:new 0 0 2271.888 553.766;" xml:space="preserve">
<style type="text/css">
	.st0{fill-rule:evenodd;clip-rule:evenodd;fill:#01182B;}
	
		.st1{clip-path:url(#SVGID_00000104685642908778286910000014027327954756862882_);fill:url(#SVGID_00000109724253872465862770000003075201274620868531_);}
	.st2{fill-rule:evenodd;clip-rule:evenodd;fill:#FFFFFF;}
	.st3{fill-rule:evenodd;clip-rule:evenodd;fill:#CCCCCC;}
	
		.st4{clip-path:url(#SVGID_00000162342588227821455980000008885288548775223695_);fill:url(#SVGID_00000178908385837425615520000000604347985895729280_);}
	.st5{fill-rule:evenodd;clip-rule:evenodd;fill:#EC6400;}
	.st6{fill-rule:evenodd;clip-rule:evenodd;fill:#EECF2B;}
	
		.st7{clip-path:url(#SVGID_00000175292388621783751820000018442954706503370687_);fill:url(#SVGID_00000025432190429955042400000007201083457703237512_);}
	.st8{fill-rule:evenodd;clip-rule:evenodd;fill:#F5A400;}
	.st9{fill-rule:evenodd;clip-rule:evenodd;fill:#808181;}
	
		.st10{clip-path:url(#SVGID_00000143576272158232218010000001170302731887840907_);fill:url(#SVGID_00000000188193499320823690000000936028832704302228_);}
	.st11{fill-rule:evenodd;clip-rule:evenodd;fill:#FDE186;}
	
		.st12{clip-path:url(#SVGID_00000062161655787209805460000008339821500440362421_);fill:url(#SVGID_00000146483365083951551750000011841211498350322058_);}
	.st13{fill:none;}
	.st14{fill:#FDE186;}
	.st15{font-family:'OpenSans-Bold';}
	.st16{font-size:244.4748px;}
</style>
<g>
	<path class="st0" d="M611.065,342.18c-88.98,140.149-454.388,140.144-543.356,0H611.065z M52.058,371.946V265.341v-30.389
		c-4.198-230.491,578.857-230.491,574.659,0v30.389v106.604H52.058V371.946z"/>
	<g>
		<g>
			<defs>
				<path id="SVGID_1_" d="M611.24,268.602V243.66v-0.693h-0.014c2.788-222.433-543.641-222.433-540.852,0h-2.84v61.303v27.794
					v25.967H611.24v-25.967v-27.795V268.602z"/>
			</defs>
			<clipPath id="SVGID_00000017497037593703193230000000321465920504744323_">
				<use xlink:href="#SVGID_1_"  style="overflow:visible;"/>
			</clipPath>
			
				<linearGradient id="SVGID_00000182508924465648022010000007344081695770245258_" gradientUnits="userSpaceOnUse" x1="839.4985" y1="-848.4417" x2="839.8943" y2="-848.4417" gradientTransform="matrix(20.9919 724.322 1224.5922 -35.4905 1021711 -638060.25)">
				<stop  offset="0" style="stop-color:#369CB7"/>
				<stop  offset="0.64" style="stop-color:#55B1D3"/>
				<stop  offset="1" style="stop-color:#70C8F1"/>
			</linearGradient>
			
				<polygon style="clip-path:url(#SVGID_00000017497037593703193230000000321465920504744323_);fill:url(#SVGID_00000182508924465648022010000007344081695770245258_);" points="
				57.761,20.816 67.993,373.855 623.787,357.747 613.555,4.709 			"/>
		</g>
	</g>
	<path class="st2" d="M433.446,306.462c-29.478,3.592-135.489,1.617-318.032-5.925C327.435,304.487,433.446,306.462,433.446,306.462
		 M385.123,313.717c-24.468,2.98-112.464,1.342-263.986-4.919C297.128,312.077,385.123,313.717,385.123,313.717z M482.159,299.754
		c-37.175,4.53-170.865,2.039-401.07-7.472C348.468,297.263,482.159,299.754,482.159,299.754z"/>
	<path class="st0" d="M274.732,179.021c-1.99-0.128-1.785-0.947,0.604-2.456c-0.966-0.625-0.894-1.247,0.232-1.865
		c1.173-0.214,1.531-0.919,1.044-2.112c-0.77-0.834-1.969-0.291-3.593,1.631c-1.056,0.461-1.777,0.327-2.174-0.409
		c-2.872-0.624-3.721-0.089-2.549,1.604c1.655,1.495,2.137,2.586,1.415,3.253c-2.05-0.166-2.892,0.386-2.548,1.662
		c3.524,1.259,4.989,2.625,4.422,4.093c-0.898,0.391-1.681,0.391-2.322-0.006c-3.214-0.073-3.336,1.06-0.373,3.403
		c1.953,1.271,3.342,0.762,4.198-1.542c0.247-0.841,1.099-1.234,2.553-1.195c0.874-0.809,0.554-1.426-0.98-1.841
		c-1.72-0.625-1.694-1.228,0.069-1.81C276.141,180.8,276.141,179.998,274.732,179.021 M401.313,208.129
		c3.207-0.091,2.888-1.192-0.973-3.305c1.57-0.799,1.439-1.631-0.357-2.501c-1.914-0.336-2.472-1.291-1.704-2.858
		c1.244-1.083,3.172-0.304,5.802,2.316c1.678,0.66,2.848,0.512,3.5-0.445c4.608-0.713,5.976,0.026,4.096,2.237
		c-2.673,1.928-3.432,3.361-2.291,4.289c3.308-0.149,4.676,0.626,4.106,2.326c-5.668,1.531-8.039,3.295-7.124,5.275
		c1.461,0.561,2.703,0.598,3.744,0.089c5.171,0.047,5.373,1.558,0.601,4.565c-3.131,1.624-5.382,0.872-6.759-2.241
		c-0.385-1.125-1.758-1.694-4.098-1.697c-1.411-1.119-0.89-1.92,1.576-2.416c2.769-0.759,2.723-1.574-0.119-2.413
		C399.054,210.442,399.054,209.366,401.313,208.129z M597.474,195.49c-1.631-0.119-1.463-0.864,0.493-2.23
		c-0.793-0.563-0.734-1.13,0.188-1.685c0.965-0.197,1.256-0.832,0.855-1.915c-0.626-0.755-1.612-0.264-2.943,1.476
		c-0.859,0.417-1.454,0.297-1.778-0.371c-2.351-0.563-3.047-0.079-2.086,1.452c1.356,1.356,1.744,2.34,1.16,2.946
		c-1.678-0.149-2.371,0.348-2.087,1.507c2.885,1.14,4.087,2.38,3.623,3.708c-0.739,0.357-1.378,0.357-1.905-0.007
		c-2.627-0.065-2.732,0.963-0.302,3.083c1.598,1.156,2.738,0.69,3.44-1.398c0.199-0.758,0.893-1.118,2.085-1.079
		c0.719-0.735,0.452-1.292-0.802-1.671c-1.409-0.566-1.388-1.11,0.059-1.637C598.628,197.098,598.628,196.372,597.474,195.49z
		 M172.791,174.113c1.988-0.128,1.784-0.947-0.606-2.456c0.967-0.625,0.895-1.248-0.23-1.865c-1.174-0.215-1.531-0.918-1.045-2.113
		c0.77-0.833,1.971-0.291,3.593,1.631c1.056,0.462,1.777,0.327,2.175-0.409c2.872-0.624,3.719-0.088,2.548,1.604
		c-1.653,1.495-2.136,2.585-1.414,3.252c2.049-0.166,2.892,0.386,2.548,1.662c-3.524,1.258-4.99,2.625-4.424,4.092
		c0.9,0.391,1.683,0.391,2.321-0.006c3.216-0.073,3.335,1.061,0.374,3.404c-1.954,1.27-3.341,0.761-4.197-1.543
		c-0.248-0.841-1.099-1.234-2.552-1.195c-0.875-0.809-0.556-1.425,0.977-1.841c1.721-0.624,1.694-1.227-0.067-1.809
		C171.38,175.892,171.38,175.09,172.791,174.113z M219.876,162.25l-0.04-2.806c0.184,0.03,0.349,0.087,0.497,0.171L219.876,162.25z
		 M227.518,166.424l-0.33-1.9c0.11-0.062,0.229-0.11,0.358-0.143L227.518,166.424z M485.519,194.805
		c1.329-0.112,1.193-0.81-0.401-2.089c0.646-0.526,0.597-1.056-0.154-1.577c-0.785-0.184-1.023-0.779-0.696-1.793
		c0.51-0.707,1.313-0.247,2.397,1.382c0.7,0.391,1.184,0.279,1.449-0.347c1.914-0.528,2.482-0.075,1.699,1.359
		c-1.105,1.269-1.42,2.19-0.945,2.758c1.367-0.139,1.932,0.327,1.701,1.411c-2.35,1.068-3.33,2.228-2.952,3.471
		c0.601,0.334,1.122,0.334,1.551-0.006c2.14-0.062,2.226,0.901,0.247,2.887c-1.302,1.081-2.23,0.646-2.802-1.31
		c-0.162-0.71-0.727-1.046-1.699-1.01c-0.585-0.687-0.368-1.21,0.653-1.564c1.149-0.53,1.131-1.04-0.047-1.533
		C484.58,196.311,484.58,195.631,485.519,194.805z M433.752,190.573l0.097-0.114c0.26-0.174,0.43-0.706,0.512-1.594
		C433.93,189.473,433.727,190.042,433.752,190.573z M52.262,254.072H63.38v-51.089c0.764,0.269,1.634,0.559,2.61,0.869
		c5.528,3.192,7.232,5.354,5.127,6.482c-4.756,0.357-6.831,1.126-6.222,2.32c0.135,1.45,2.17,2.768,6.1,3.982
		c0.578-3.112,1.249-6.199,2.024-9.266l10.006-0.852c5.465-3.92,7.309-8.29,5.505-13.103c-0.342-0.809,1.534-2.189,5.625-4.127
		c2.024-2.359,1.202-3.093-2.48-2.204c-1.407,0.773-2.702,1.039-3.893,0.795c-1.471-1.319-0.502-2.873,2.882-4.645
		c2.253-0.213,3.841-0.774,4.766-1.693c0.902-1.792-0.717-2.456-4.833-1.988c-0.592,0.403-1.099,0.285-1.547-0.322
		c-0.758-1.509,1.151-3.535,5.74-6.07c0.944-0.657,0.839-1.305-0.306-1.931c-1.357,0.246-1.084-0.496,0.821-2.234
		c0.765-0.403,1.008-2.443,0.761-6.114c1.26-1.915,2.267-0.364,2.991,4.656c1.107,0.142,1.835,0.879,2.179,2.209
		c0.585,1.001,1.507,1.656,2.771,1.99c0.805,1.231-0.067,1.728-2.633,1.482c-0.507,1.998,0.47,3.199,2.93,3.596
		c0.974,0.346,1.094,0.834,0.374,1.458c-1.801,0.155-1.922,0.895-0.374,2.231c1.478,0.473,2.872,1.541,4.198,3.215
		c1.476,1.71,0.797,2.201-2.024,1.464c-0.47-1.043-1.166-1.562-2.095-1.539c-1.78,2.388,0.265,3.793,6.142,4.228
		c1.947,0.82,1.905,1.786-0.144,2.89c-1.052,1.908,0.205,1.782,3.795-0.39c-0.189-1.987,2.375-3.044,7.668-3.181
		c3.825-1.736,4.736-3.014,2.699-3.835c-3.671,0.716-5.444,0.411-5.324-0.909c0.213-1.204-0.459-1.838-2.021-1.881
		c-0.596,0.835-1.521,1.055-2.783,0.692c-1.368-1.783,0.924-3.819,6.906-6.11c3.446-1.389,5.171-2.624,5.175-3.711
		c-0.029-2.037-1.163-2.581-3.38-1.63c-0.443,1.324-1.015,1.652-1.715,0.99c-1.478-3.789,0.99-7.713,7.412-11.747
		c0.944-1.383,0.642-1.931-0.894-1.65c-0.585,0.858-1.24,1.013-1.957,0.464c-0.906-0.705,0.047-1.992,2.851-3.841
		c2.107-1.559,1.659-1.987-1.34-1.291c-0.733,0.645-1.565,1.006-2.476,1.076c-2.309-1.225-0.336-2.876,5.919-4.933
		c0.682-0.844,0.141-1.514-1.651-2.032c-0.518-0.346,0.181-1.118,2.099-2.34c1.343-1.309,1.687-3.819,1.04-7.528
		c0.057-1.925,0.728-2.489,2.032-1.743c-0.29,4.574,0.246,6.918,1.579,7.049c1.188-0.23,2.136,0.015,2.841,0.717
		c0.694,1.462-0.188,2.359-2.627,2.691c-0.915,0.699,0.562,1.949,4.424,3.747c2.421,1.683,1.982,2.672-1.348,2.993
		c-2.904,0.476-2.606,2.126,0.898,4.929c3.662,1.04,5.606,3.015,5.849,5.908c0.713,2.202-0.209,3.058-2.768,2.57
		c-0.864-1.463-2.101-2.12-3.751-1.958c-3.42,0.491-4.096,1.538-2.025,3.141c3.174-0.155,4.765,0.482,4.796,1.919
		c-0.101,0.676,0.536,1.059,1.955,1.15c2.381,0.349,3.785,1.867,4.202,4.557c0.671,2.119-0.934,2.37-4.807,0.757
		c-0.587-1.333-1.354-1.861-2.322-1.604c-3.005,1.425-2.09,3.32,2.699,5.67c2.272,0.749,4.197,1.777,5.772,3.107
		c0.733,0.999-0.071,1.898-2.4,2.68c-2.545,1.864-2.292,3.308,0.751,4.333c2.447,1.433,2.408,2.595-0.145,3.483
		c3.105,2.838,5.387,2.881,6.845,0.125c2.135-0.429,3.093-1.664,2.888-3.711c-0.703-1.508-2.057-1.528-4.084-0.068
		c-2.622,0.228-2.382-1.033,0.75-3.774c4.407-1.274,6.653-2.629,6.749-4.099c0.382-0.911-0.902-1.452-3.869-1.615
		c-1.294-0.808-0.235-2.463,3.19-4.955c4.35-1.798,5.318-2.713,2.93-2.768c-2.904,0.746-3.887-0.139-2.93-2.655
		c1.222-1.065,1.095-2.062-0.374-3.003c-0.348-0.994,0.999-2.001,4.06-3.005c-0.719-1.119-0.442-2.762,0.818-4.917
		c1.473-0.636,2.406-1.426,2.766-2.361c-0.13-3.615,0.116-5.622,0.756-6.044c2.518,0.328,3.367,2.783,2.542,7.347
		c-1.223,1.034-1.488,2.153-0.746,3.368c1.999-0.096,3.475,1.292,4.428,4.152c0.852,1.539,1.967,1.863,3.296,0.972
		c-0.625-1.39-0.103-2.901,1.577-4.543c2.051-0.152,2.968-0.743,2.772-1.752c-0.486-3.175-2.443-3.205-5.856-0.089
		c-0.117,0.743-0.583,1.182-1.415,1.313c-1.901-1.474-0.401-3.994,4.5-7.57c3.049-1.543,4.275-2.916,3.666-4.13
		c-1.116-2.849-2.636-2.777-4.567,0.211c0.138,1.075-0.244,1.776-1.13,2.106c-2.414-1.321-2.055-3.729,1.051-7.264
		c2.627-0.925,4.303-1.916,5.02-2.965c0.432-2.992-0.161-3.73-1.797-2.219c-0.67,1.865-1.599,2.301-2.771,1.291
		c-1.018-2.159,1.099-4.888,6.378-8.173c-0.476-3.493,0.045-6.615,1.562-9.353c1.326-1.127,1.934,1.891,1.809,9.051
		c1.071-0.277,1.599,0.221,1.569,1.494c3.145,0.532,5.294,1.428,6.442,2.678c0.285,1.822-0.358,2.71-1.939,2.671
		c-1.156-2.082-2.406-3.117-3.749-3.1c-2.368,1.502-2.411,2.33-0.152,2.489c3.957,1.267,5.71,2.901,5.248,4.922
		c-0.769,1.937-1.994,1.949-3.679,0.045c-1.179-1.849-2.144-2.29-2.916-1.311c-0.66,1.556,0.819,3.269,4.42,5.146
		c2.251,1.01,3.818,2.583,4.722,4.744c0.76,2.063,0.042,2.816-2.174,2.283c0.252-1.598-0.285-2.438-1.646-2.498
		c-1.628,2.068,0.147,5.315,5.327,9.745c0.738,1.313,0.291,2.04-1.361,2.188c-1.591-2.683-3.417-4.225-5.459-4.657
		c-1.009,1.507-0.593,2.677,1.271,3.511c2.204,0.855,3.66,2.262,4.34,4.223c0.339,1.811-0.256,2.214-1.797,1.192
		c-0.776-1.374-1.621-1.793-2.543-1.262c-0.885,1.877,0.789,4.196,5.011,6.941c2.327,0.254,3.249-0.28,2.775-1.624
		c-2.451-0.433-2.833-0.997-1.125-1.71c2.086-0.106,2.863-0.672,2.334-1.684c-3.187-0.471-3.785-1.329-1.807-2.551
		c1.093,0.103,1.414-0.333,0.979-1.304c-0.633-1.879-0.31-3.611,0.971-5.187c-0.128-2.411,0.378-4.237,1.497-5.469
		c1.655-1.373,2.537,0.324,2.632,5.077c0.085,1.953,0.983,3.13,2.69,3.526c2.061,0.455,2.285,1.234,0.68,2.326
		c-2.038,0.146-3.292,0.876-3.747,2.199c-0.156,1.618,0.75,1.63,2.698,0.047c1.754-1.579,2.838-1.895,3.22-0.972
		c-0.498,0.978-0.398,1.931,0.298,2.876c3.632,0.528,4.68-0.225,3.149-2.243c-2.398-0.253-2.522-1.191-0.377-2.801
		c1.355-0.327,2.404-0.698,3.149-1.119l0.046-0.265v-3.095c-0.907-0.145-2.242,0.35-4.013,1.488c-0.438,2.789-5.29,0.174-1.87-5.027
		c2.248-1.915,2.616-3.357,1.118-4.329c-1.311-0.758-2.364-0.445-3.15,0.974c-1.38,1.406-2.266,0.984-2.618-1.257
		c-0.285-2.123,1.638-3.256,5.768-3.395c2.09-0.649,2.299-2.187,0.595-4.64c-1.343-0.582-2.118-0.042-2.325,1.617
		c-1.698,1.112-2.546,0.67-2.546-1.338c-0.049-2.316,1.878-3.73,5.774-4.251c4.365-0.174,5.716-0.687,4.046-1.542
		c-3.434,0.373-4.08-0.161-1.956-1.607c1.969-0.142,2.573-0.725,1.81-1.728c-0.062-1.536-1.666-1.509-4.803,0.079
		c-0.415,1.059-1.135,1.431-2.17,1.137c-0.994-1.546,0.999-3.684,5.989-6.413c1.874-0.284,2.024-1.024,0.458-2.225
		c-1.645-0.749-3.604,0.079-5.847,2.459c-1.558-0.098-1.146-1.456,1.202-4.06c1.888-1.082,2.769-2.38,2.619-3.893
		c-1.678-1.336-0.736-2.461,2.84-3.369c0.917,0.081,1.583,0.025,1.997-0.17l0.037-2.604c-0.32-1.528-0.298-3.116,0.067-4.771
		l0.086-6.165c0.115,0.073,0.242,0.168,0.374,0.297c0.192-2.309,0.493-3.945,0.902-4.907c0.131-0.128,0.258-0.225,0.376-0.297
		l0.235,16.777c0.172,1.106,0.186,2.183,0.045,3.231l0.048,3.406c0.417,0.148,1.036,0.185,1.856,0.112
		c3.578,0.907,4.52,2.033,2.842,3.369c-0.151,1.512,0.73,2.81,2.618,3.892c2.348,2.605,2.76,3.962,1.202,4.06
		c-2.242-2.38-4.201-3.207-5.847-2.459c-1.566,1.201-1.415,1.941,0.458,2.225c4.99,2.729,6.984,4.865,5.99,6.413
		c-1.035,0.294-1.755-0.079-2.169-1.138c-3.137-1.589-4.74-1.615-4.803-0.079c-0.764,1.004-0.159,1.587,1.809,1.729
		c2.125,1.447,1.479,1.98-1.955,1.608c-1.671,0.854-0.32,1.367,4.046,1.542c3.896,0.521,5.824,1.934,5.773,4.251
		c0,2.007-0.848,2.45-2.545,1.337c-0.207-1.657-0.983-2.198-2.325-1.616c-1.704,2.452-1.495,3.99,0.595,4.64
		c4.131,0.139,6.054,1.272,5.768,3.394c-0.351,2.241-1.238,2.662-2.618,1.256c-0.786-1.419-1.839-1.733-3.15-0.974
		c-1.498,0.97-1.129,2.413,1.119,4.329c3.42,5.201-1.433,7.816-1.87,5.027c-1.771-1.138-3.107-1.635-4.013-1.488v3.094l0.046,0.265
		c0.744,0.422,1.793,0.792,3.15,1.119c2.144,1.611,2.02,2.549-0.378,2.802c-1.531,2.018-0.482,2.77,3.149,2.243
		c0.694-0.946,0.796-1.899,0.298-2.877c0.381-0.923,1.465-0.607,3.219,0.972c1.947,1.583,2.854,1.571,2.699-0.048
		c-0.454-1.322-1.709-2.052-3.75-2.198c-1.602-1.092-1.38-1.871,0.68-2.326c1.708-0.397,2.606-1.572,2.691-3.526
		c0.096-4.753,0.979-6.451,2.633-5.078c1.12,1.231,1.623,3.058,1.497,5.47c1.28,1.575,1.604,3.308,0.97,5.186
		c-0.436,0.971-0.114,1.407,0.978,1.304c1.98,1.221,1.38,2.08-1.806,2.551c-0.53,1.011,0.248,1.578,2.335,1.684
		c1.708,0.713,1.326,1.277-1.126,1.71c-0.474,1.343,0.448,1.878,2.775,1.623c4.223-2.745,5.896-5.063,5.012-6.941
		c-0.924-0.532-1.769-0.112-2.544,1.262c-1.542,1.023-2.136,0.619-1.796-1.192c0.679-1.961,2.136-3.367,4.341-4.222
		c1.864-0.834,2.279-2.004,1.27-3.512c-2.044,0.431-3.868,1.975-5.461,4.657c-1.65-0.148-2.098-0.876-1.361-2.188
		c5.182-4.43,6.956-7.677,5.327-9.745c-1.36,0.06-1.897,0.901-1.645,2.499c-2.217,0.532-2.934-0.221-2.175-2.284
		c0.906-2.162,2.472-3.735,4.723-4.744c3.601-1.877,5.078-3.591,4.42-5.145c-0.772-0.98-1.737-0.539-2.917,1.31
		c-1.684,1.904-2.91,1.892-3.677-0.046c-0.462-2.02,1.293-3.653,5.247-4.921c2.258-0.159,2.216-0.987-0.151-2.488
		c-1.345-0.018-2.595,1.015-3.75,3.098c-1.582,0.04-2.225-0.849-1.94-2.671c1.149-1.25,3.297-2.144,6.442-2.676
		c-0.031-1.274,0.498-1.772,1.568-1.496c-0.125-7.158,0.483-10.177,1.809-9.05c1.516,2.738,2.036,5.861,1.561,9.353
		c5.279,3.285,7.396,6.015,6.379,8.174c-1.172,1.01-2.101,0.574-2.773-1.291c-1.636-1.51-2.228-0.773-1.797,2.218
		c0.719,1.05,2.393,2.04,5.021,2.966c3.106,3.535,3.465,5.943,1.05,7.264c-0.887-0.33-1.268-1.03-1.13-2.107
		c-1.931-2.987-3.451-3.06-4.568-0.211c-0.609,1.214,0.617,2.588,3.666,4.13c4.901,3.578,6.4,6.097,4.499,7.572
		c-0.831-0.131-1.298-0.571-1.415-1.313c-3.413-3.117-5.369-3.087-5.856,0.088c-0.198,1.01,0.721,1.602,2.772,1.753
		c1.681,1.642,2.202,3.152,1.577,4.544c1.33,0.891,2.444,0.567,3.296-0.972c0.953-2.86,2.43-4.248,4.427-4.152
		c0.744-1.215,0.479-2.334-0.745-3.368c-0.823-4.564,0.025-7.02,2.543-7.346c0.638,0.422,0.886,2.428,0.755,6.043
		c0.362,0.934,1.295,1.724,2.767,2.361c1.259,2.155,1.536,3.798,0.818,4.918c3.061,1.004,4.409,2.01,4.059,3.004
		c-1.468,0.941-1.595,1.937-0.373,3.003c0.957,2.516-0.026,3.401-2.93,2.655c-2.389,0.056-1.419,0.97,2.93,2.769
		c3.425,2.492,4.484,4.146,3.19,4.954c-2.966,0.163-4.25,0.703-3.869,1.615c0.096,1.472,2.342,2.826,6.749,4.099
		c3.133,2.74,3.372,4.002,0.752,3.775c-2.028-1.461-3.382-1.44-4.084,0.067c-0.205,2.047,0.752,3.283,2.888,3.711
		c1.457,2.756,3.74,2.714,6.844-0.124c-2.553-0.888-2.591-2.05-0.143-3.483c3.043-1.026,3.293-2.468,0.75-4.334
		c-2.331-0.782-3.131-1.681-2.4-2.68c1.573-1.331,3.501-2.358,5.772-3.107c4.789-2.35,5.703-4.244,2.699-5.67
		c-0.967-0.258-1.734,0.27-2.322,1.604c-3.874,1.613-5.478,1.362-4.807-0.757c0.415-2.69,1.819-4.209,4.202-4.558
		c1.419-0.09,2.055-0.472,1.956-1.149c0.03-1.436,1.622-2.073,4.795-1.918c2.072-1.604,1.396-2.65-2.024-3.142
		c-1.651-0.161-2.89,0.495-3.753,1.957c-2.557,0.489-3.48-0.366-2.766-2.569c0.243-2.894,2.186-4.868,5.847-5.907
		c3.506-2.803,3.803-4.454,0.9-4.93c-3.331-0.321-3.772-1.31-1.35-2.993c3.863-1.796,5.34-3.047,4.426-3.747
		c-2.44-0.33-3.321-1.228-2.628-2.689c0.704-0.704,1.653-0.949,2.842-0.718c1.334-0.131,1.868-2.475,1.579-7.05
		c1.305-0.746,1.976-0.182,2.033,1.743c-0.649,3.708-0.305,6.218,1.039,7.528c1.918,1.222,2.616,1.994,2.099,2.34
		c-1.792,0.519-2.333,1.189-1.65,2.031c6.254,2.059,8.229,3.71,5.919,4.934c-0.91-0.069-1.742-0.431-2.475-1.075
		c-2.998-0.696-3.446-0.267-1.339,1.291c2.804,1.849,3.757,3.135,2.851,3.842c-0.717,0.548-1.373,0.393-1.958-0.465
		c-1.535-0.281-1.836,0.267-0.893,1.65c6.421,4.034,8.889,7.958,7.412,11.749c-0.7,0.66-1.272,0.333-1.717-0.991
		c-2.216-0.95-3.35-0.406-3.377,1.631c0.003,1.085,1.727,2.321,5.174,3.71c5.981,2.292,8.274,4.327,6.905,6.11
		c-1.26,0.363-2.186,0.142-2.783-0.692c-1.562,0.042-2.233,0.676-2.02,1.881c0.119,1.321-1.653,1.624-5.326,0.909
		c-2.035,0.821-1.126,2.098,2.699,3.835c5.294,0.138,7.859,1.195,7.669,3.181c3.589,2.173,4.848,2.298,3.795,0.391
		c-2.048-1.103-2.091-2.07-0.142-2.889c5.877-0.436,7.923-1.841,6.141-4.228c-0.928-0.023-1.623,0.496-2.094,1.539
		c-2.822,0.736-3.501,0.246-2.023-1.464c1.326-1.673,2.719-2.742,4.198-3.214c1.547-1.338,1.427-2.077-0.373-2.232
		c-0.721-0.625-0.601-1.112,0.373-1.459c2.461-0.397,3.437-1.598,2.931-3.595c-2.567,0.245-3.438-0.251-2.633-1.482
		c1.264-0.334,2.187-0.989,2.771-1.99c0.343-1.331,1.073-2.067,2.179-2.209c0.725-5.021,1.732-6.571,2.992-4.657
		c-0.248,3.671-0.005,5.711,0.759,6.114c1.905,1.738,2.179,2.481,0.822,2.235c-1.146,0.626-1.25,1.273-0.306,1.931
		c4.588,2.535,6.498,4.561,5.743,6.07c-0.448,0.606-0.957,0.725-1.547,0.322c-4.118-0.468-5.736,0.195-4.833,1.988
		c0.924,0.918,2.512,1.479,4.764,1.692c3.385,1.773,4.354,3.325,2.884,4.645c-1.192,0.246-2.488-0.022-3.895-0.795
		c-3.682-0.888-4.503-0.155-2.477,2.204c4.09,1.938,5.967,3.318,5.625,4.126c-1.806,4.814,0.037,9.183,5.504,13.104l10.006,0.851
		c0.775,3.068,1.446,6.154,2.024,9.266c3.929-1.214,5.965-2.532,6.1-3.981c0.607-1.195-1.466-1.963-6.224-2.32
		c-2.105-1.129-0.402-3.29,5.128-6.483c6.99-2.216,8.554-3.41,4.697-3.572c-4.669,0.88-6.248-0.351-4.697-3.671
		c1.959-1.37,1.758-2.707-0.593-4.02c-0.583-1.337,1.588-2.622,6.508-3.849c-1.147-1.518-0.707-3.693,1.329-6.52
		c2.368-0.797,3.866-1.807,4.457-3.043c-0.221-4.818,0.177-7.501,1.198-8.04c4.062,0.551,5.426,3.853,4.1,9.922
		c-1.99,1.317-2.388,2.814-1.204,4.47c3.228-0.04,5.594,1.861,7.118,5.72c1.39,2.089,3.153,2.568,5.305,1.429
		c-1.006-1.881-0.163-3.872,2.532-5.991c3.304-0.125,4.794-0.873,4.466-2.231c-0.792-4.261-3.933-4.381-9.411-0.364
		c-0.193,0.987-0.965,1.555-2.291,1.704c-3.056-2.047-0.642-5.358,7.237-9.926c4.92-1.92,6.893-3.72,5.914-5.36
		c-1.796-3.846-4.248-3.821-7.359,0.086c0.219,1.445-0.39,2.369-1.805,2.773c-3.882-1.862-3.32-5.085,1.689-9.655
		c4.231-1.139,6.918-2.388,8.077-3.754c0.691-3.971-0.27-4.987-2.897-3.043c-1.083,2.475-2.57,3.011-4.459,1.61
		c-1.646-2.937,1.776-6.479,10.247-10.638c-0.763-4.691,0.089-8.838,2.534-12.428c2.139-1.455,3.103,2.598,2.902,12.161
		c1.72-0.333,2.568,0.352,2.523,2.059c5.066,0.839,8.516,2.113,10.368,3.838c0.458,2.44-0.579,3.606-3.124,3.493
		c-1.875-2.845-3.878-4.27-6.03-4.297c-3.805,1.904-3.883,3.011-0.247,3.311c6.367,1.853,9.175,4.121,8.449,6.789
		c-1.234,2.546-3.201,2.516-5.914-0.085c-1.901-2.528-3.471-3.15-4.697-1.878c-1.067,2.05,1.3,4.403,7.111,7.065
		c3.612,1.432,6.137,3.603,7.595,6.525c1.227,2.786,0.055,3.766-3.497,2.953c0.424-2.125-0.466-3.251-2.648-3.403
		c-2.611,2.693,0.238,7.114,8.563,13.234c1.204,1.779,0.475,2.732-2.175,2.865c-2.103-2.994-4.46-4.974-7.068-5.95l0.02,0.177
		c0.738,0.122,1.223,0.745,1.455,1.87c0.388,0.85,1.007,1.408,1.846,1.689c0.458,0.889,0.103,1.328-1.064,1.31
		c2.475,1.213,4.156,2.881,5.058,5.016c0.529,2.443-0.436,2.949-2.896,1.516c-0.518-0.777-1.058-1.335-1.619-1.672
		c-0.009,0.311,0.23,0.732,0.718,1.267c0.987,0.4,1.918,1.309,2.802,2.726c0.982,1.452,0.53,1.867-1.351,1.241
		c-0.312-0.887-0.778-1.326-1.398-1.306c-0.58,0.99-0.55,1.782,0.092,2.375l0.381,0.287c0.742,0.459,1.95,0.768,3.624,0.926
		c0.985,0.526,1.207,1.126,0.656,1.792l0.077,0.044c0.513,0.062,0.987,0.23,1.428,0.491l0.276-0.209
		c-0.128-1.683,1.58-2.581,5.114-2.699c2.549-1.472,3.155-2.553,1.801-3.253c-2.452,0.608-3.632,0.352-3.556-0.77
		c0.146-1.023-0.303-1.557-1.347-1.594c-0.394,0.708-1.014,0.897-1.854,0.589c-0.915-1.514,0.616-3.241,4.605-5.183
		c2.297-1.18,3.446-2.227,3.451-3.145c-0.018-1.73-0.776-2.193-2.255-1.387c-0.296,1.125-0.677,1.4-1.146,0.844
		c-0.985-3.218,0.664-6.543,4.948-9.967c0.629-1.168,0.428-1.636-0.598-1.398c-0.392,0.729-0.827,0.858-1.303,0.392
		c-0.606-0.599,0.031-1.687,1.9-3.258c1.404-1.316,1.105-1.682-0.894-1.094c-0.492,0.55-1.045,0.856-1.653,0.915
		c-1.539-1.041-0.224-2.439,3.949-4.186c0.455-0.713,0.095-1.281-1.102-1.72c-0.343-0.295,0.122-0.951,1.401-1.986
		c0.897-1.109,1.126-3.236,0.698-6.386c0.034-1.627,0.482-2.111,1.353-1.474c-0.195,3.875,0.163,5.865,1.051,5.98
		c0.792-0.201,1.428,0.007,1.898,0.606c0.462,1.238-0.123,1.999-1.752,2.282c-0.613,0.592,0.374,1.652,2.948,3.179
		c1.618,1.425,1.322,2.264-0.897,2.535c-1.939,0.406-1.738,1.802,0.598,4.18c2.441,0.88,3.736,2.553,3.899,5.012
		c0.476,1.866-0.139,2.595-1.846,2.175c-0.572-1.236-1.404-1.795-2.503-1.658c-2.281,0.418-2.731,1.306-1.35,2.665
		c2.119-0.132,3.18,0.411,3.2,1.629c-0.072,0.57,0.361,0.898,1.302,0.973c1.593,0.296,2.526,1.583,2.803,3.866
		c0.448,1.798-0.62,2.01-3.203,0.639c-0.392-1.128-0.906-1.577-1.548-1.359c-2.003,1.209-1.398,2.815,1.795,4.81
		c1.517,0.632,2.803,1.503,3.853,2.632c0.486,0.85-0.048,1.611-1.602,2.275c-1.696,1.582-1.531,2.805,0.5,3.675
		c1.636,1.214,1.609,2.204-0.094,2.955c2.069,2.407,3.592,2.442,4.565,0.102c1.42-0.36,2.064-1.407,1.925-3.142
		c-0.466-1.279-1.371-1.299-2.724-0.06c-1.748,0.193-1.585-0.875,0.5-3.2c2.938-1.077,4.437-2.23,4.501-3.476
		c0.255-0.772-0.602-1.23-2.578-1.371c-0.866-0.682-0.16-2.087,2.125-4.203c2.897-1.526,3.547-2.302,1.951-2.349
		c-1.937,0.637-2.59-0.114-1.951-2.251c0.816-0.9,0.729-1.748-0.247-2.547c-0.235-0.844,0.662-1.693,2.702-2.546
		c-0.476-0.948-0.292-2.343,0.547-4.168c0.983-0.544,1.606-1.214,1.846-2.002c-0.087-3.065,0.079-4.772,0.505-5.128
		c1.678,0.279,2.243,2.361,1.696,6.233c-0.819,0.874-0.994,1.827-0.5,2.856c1.337-0.082,2.32,1.095,2.955,3.518
		c0.571,1.306,1.309,1.582,2.197,0.827c-0.415-1.179-0.068-2.461,1.05-3.852c1.367-0.133,1.983-0.632,1.849-1.49
		c-0.326-2.69-1.628-2.717-3.902-0.074c-0.079,0.629-0.391,1.003-0.945,1.115c-1.269-1.251-0.269-3.388,2.998-6.424
		c2.037-1.306,2.853-2.472,2.448-3.502c-0.745-2.417-1.762-2.356-3.05,0.181c0.094,0.911-0.159,1.507-0.752,1.784
		c-1.604-1.117-1.373-3.166,0.7-6.161c1.755-0.785,2.87-1.625,3.35-2.516c0.29-2.537-0.109-3.162-1.198-1.881
		c-0.449,1.585-1.066,1.952-1.849,1.095c-0.68-1.833,0.734-4.144,4.25-6.93c-0.316-2.962,0.034-5.61,1.045-7.936
		c0.887-0.952,1.291,1.606,1.203,7.678c0.717-0.234,1.068,0.188,1.05,1.268c2.098,0.451,3.529,1.208,4.294,2.268
		c0.191,1.548-0.24,2.302-1.295,2.269c-0.769-1.768-1.604-2.645-2.5-2.628c-1.578,1.271-1.609,1.975-0.101,2.107
		c2.637,1.075,3.807,2.466,3.498,4.175c-0.51,1.642-1.327,1.653-2.452,0.041c-0.786-1.57-1.432-1.945-1.945-1.116
		c-0.438,1.32,0.545,2.775,2.948,4.371c1.501,0.853,2.546,2.186,3.152,4.018c0.507,1.75,0.024,2.391-1.451,1.938
		c0.17-1.356-0.194-2.067-1.102-2.119c-1.082,1.752,0.102,4.509,3.557,8.264c0.493,1.115,0.193,1.727-0.907,1.856
		c-1.061-2.276-2.278-3.584-3.645-3.948c-0.671,1.279-0.391,2.269,0.85,2.975c1.472,0.724,2.441,1.918,2.897,3.581
		c0.224,1.54-0.174,1.88-1.196,1.012c-0.521-1.167-1.086-1.524-1.702-1.071c-0.588,1.594,0.528,3.557,3.342,5.888
		c1.554,0.218,2.17-0.238,1.853-1.377c-1.638-0.37-1.89-0.847-0.752-1.451c1.391-0.089,1.909-0.572,1.555-1.425
		c-2.122-0.405-2.523-1.133-1.201-2.166c0.727,0.085,0.945-0.282,0.651-1.105c-0.422-1.595-0.204-3.064,0.649-4.397
		c-0.086-2.05,0.251-3.597,0.998-4.641c1.102-1.167,1.687,0.272,1.755,4.304c0.055,1.656,0.653,2.656,1.796,2.993
		c1.373,0.383,1.523,1.043,0.452,1.972c-1.36,0.122-2.196,0.741-2.5,1.863c-0.101,1.371,0.5,1.385,1.8,0.042
		c1.169-1.341,1.891-1.608,2.149-0.827c-0.334,0.83-0.267,1.643,0.197,2.438c2.421,0.449,3.121-0.188,2.101-1.9
		c-1.598-0.215-1.684-1.007-0.252-2.374c0.904-0.278,1.602-0.592,2.098-0.952l0.371-2.696c-0.588-0.429-1.591-0.055-3.017,1.111
		c-0.292,2.364-3.526,0.147-1.247-4.267c1.498-1.622,1.744-2.847,0.747-3.666c-0.874-0.646-1.577-0.377-2.101,0.824
		c-0.922,1.193-1.51,0.837-1.748-1.068c-0.19-1.795,1.091-2.757,3.849-2.877c1.395-0.551,1.53-1.856,0.395-3.934
		c-0.896-0.493-1.412-0.038-1.548,1.37c-1.131,0.942-1.699,0.568-1.699-1.131c-0.031-1.966,1.254-3.165,3.849-3.608
		c2.914-0.146,3.815-0.581,2.704-1.306c-2.292,0.316-2.724-0.139-1.306-1.366c1.313-0.119,1.714-0.613,1.203-1.466
		c-0.04-1.299-1.108-1.278-3.202,0.068c-0.276,0.897-0.755,1.214-1.445,0.965c-0.664-1.313,0.666-3.123,3.995-5.437
		c1.248-0.24,1.349-0.87,0.306-1.889c-1.102-0.633-2.408,0.068-3.899,2.087c-1.041-0.085-0.77-1.234,0.798-3.441
		c1.261-0.922,1.846-2.022,1.748-3.304c-1.122-1.133-0.489-2.084,1.897-2.856c1.319,0.149,1.857-0.246,1.606-1.2
		c-0.521-1.874-0.534-3.857-0.055-5.964c0.065-4.265,0.316-7.059,0.756-8.376c1.05-1.299,1.516,0.878,1.393,6.532
		c-0.068,1.128,0.167,1.99,0.708,2.584c1.238,0.099,1.738,0.612,1.496,1.53c2.327,1.044,3.842,2.309,4.55,3.805v2.125
		c-0.36,0.068-0.976-0.314-1.851-1.15c-1.084-1.258-2.168-1.537-3.249-0.84c-0.996,1.262-0.477,2.32,1.551,3.177
		c2.022,1.315,2.338,2.343,0.948,3.088c-0.099,0.965,0.764,1.725,2.602,2.302v1.417c-1.703-0.371-2.241,0.422-1.599,2.377
		c0.71,0.613,1.241,1.187,1.599,1.724v2.768c-0.426,0.326-0.993-0.038-1.701-1.088c-0.509-1.027-1.254-1.377-2.25-1.045
		c-1.057,1.956-0.041,3.424,3.054,4.42c0.159-0.05,0.312-0.105,0.465-0.149l0.432-0.269l0.32,88.985h16.718l0.373-90.325
		l0.531,0.287c0.188,0.046,0.375,0.105,0.571,0.159c3.798-1.064,5.046-2.632,3.749-4.722c-1.223-0.356-2.138,0.019-2.763,1.116
		c-0.869,1.123-1.565,1.511-2.088,1.163v-2.957c0.437-0.573,1.09-1.187,1.963-1.841c0.789-2.089,0.128-2.935-1.963-2.54v-1.513
		c2.256-0.615,3.315-1.428,3.195-2.459c-1.708-0.795-1.319-1.893,1.163-3.298c2.489-0.915,3.126-2.045,1.904-3.393
		c-1.327-0.743-2.658-0.445-3.989,0.898c-1.074,0.892-1.828,1.299-2.272,1.227v-2.269c0.868-1.599,2.729-2.95,5.586-4.064
		c-0.297-0.981,0.317-1.529,1.837-1.635c0.663-0.635,0.951-1.554,0.867-2.761c-0.02-0.837-0.028-1.604-0.02-2.298
		c0.861,0.436,1.716,0.874,2.565,1.314c0.044,0.898,0.076,1.882,0.095,2.953c0.586,2.251,0.57,4.37-0.069,6.371
		c-0.308,1.019,0.353,1.441,1.971,1.282c2.93,0.824,3.706,1.84,2.329,3.051c-0.122,1.369,0.597,2.546,2.146,3.529
		c1.925,2.357,2.258,3.585,0.981,3.676c-1.832-2.156-3.436-2.905-4.787-2.229c-1.282,1.089-1.157,1.761,0.374,2.018
		c4.088,2.47,5.722,4.405,4.907,5.808c-0.849,0.265-1.436-0.072-1.775-1.031c-2.57-1.438-3.882-1.459-3.931-0.073
		c-0.628,0.911-0.135,1.439,1.477,1.565c1.74,1.312,1.209,1.797-1.603,1.46c-1.365,0.773-0.259,1.239,3.319,1.394
		c3.184,0.472,4.762,1.755,4.724,3.854c0,1.815-0.697,2.215-2.086,1.208c-0.167-1.503-0.801-1.989-1.9-1.462
		c-1.394,2.219-1.228,3.612,0.484,4.201c3.385,0.127,4.959,1.155,4.726,3.072c-0.293,2.034-1.015,2.416-2.146,1.141
		c-0.643-1.282-1.507-1.57-2.579-0.879c-1.223,0.875-0.924,2.183,0.917,3.916c2.799,4.714-1.172,7.082-1.532,4.557
		c-1.748-1.244-2.98-1.644-3.701-1.187l0.454,2.881c0.61,0.384,1.465,0.719,2.575,1.017c1.758,1.46,1.653,2.305-0.308,2.535
		c-1.253,1.83-0.393,2.509,2.578,2.03c0.57-0.851,0.653-1.718,0.243-2.604c0.317-0.835,1.203-0.549,2.638,0.883
		c1.595,1.434,2.335,1.419,2.209-0.045c-0.371-1.198-1.4-1.859-3.068-1.99c-1.315-0.992-1.131-1.696,0.554-2.107
		c1.403-0.359,2.137-1.428,2.205-3.197c0.083-4.307,0.802-5.843,2.154-4.597c0.918,1.115,1.331,2.768,1.226,4.957
		c1.047,1.423,1.314,2.993,0.796,4.696c-0.361,0.879-0.094,1.271,0.799,1.18c1.623,1.105,1.132,1.881-1.473,2.314
		c-0.435,0.911,0.2,1.426,1.908,1.522c1.398,0.645,1.089,1.155-0.922,1.551c-0.387,1.215,0.367,1.702,2.275,1.47
		c3.456-2.491,4.825-4.587,4.103-6.29c-0.755-0.483-1.449-0.102-2.088,1.144c-1.257,0.927-1.743,0.563-1.468-1.082
		c0.559-1.775,1.748-3.05,3.556-3.824c1.523-0.756,1.867-1.812,1.043-3.178c-1.678,0.388-3.172,1.786-4.476,4.216
		c-1.35-0.137-1.718-0.792-1.112-1.983c4.241-4.009,5.693-6.955,4.366-8.826c-1.116,0.055-1.561,0.815-1.352,2.263
		c-1.814,0.484-2.405-0.2-1.782-2.069c0.743-1.957,2.027-3.382,3.869-4.292c2.951-1.704,4.156-3.259,3.619-4.667
		c-0.63-0.887-1.424-0.487-2.388,1.191c-1.382,1.723-2.385,1.711-3.01-0.043c-0.381-1.827,1.056-3.313,4.294-4.461
		c1.851-0.141,1.814-0.894-0.123-2.251c-1.098-0.018-2.125,0.918-3.069,2.807c-1.294,0.036-1.824-0.77-1.59-2.422
		c0.94-1.133,2.698-1.942,5.272-2.423c-0.021-1.153,0.408-1.604,1.29-1.354c-0.048-2.852,0.022-4.976,0.207-6.377
		c0.82,0.557,1.635,1.116,2.44,1.678c0.291,1.553,0.33,3.212,0.114,4.975c4.316,2.976,6.051,5.445,5.216,7.403
		c-0.96,0.916-1.718,0.523-2.269-1.17c-1.336-1.369-1.826-0.701-1.47,2.009c0.589,0.952,1.958,1.848,4.112,2.687
		c2.545,3.199,2.829,5.387,0.86,6.58c-0.728-0.297-1.039-0.932-0.924-1.906c-1.581-2.71-2.829-2.775-3.743-0.193
		c-0.498,1.1,0.505,2.346,3.006,3.74c4.01,3.243,5.239,5.524,3.68,6.861c-0.681-0.12-1.064-0.52-1.16-1.191
		c-2.793-2.823-4.389-2.794-4.791,0.08c-0.165,0.915,0.592,1.449,2.271,1.591c1.372,1.486,1.799,2.854,1.289,4.116
		c1.091,0.805,1.996,0.511,2.697-0.884c0.78-2.589,1.986-3.844,3.627-3.758c0.606-1.1,0.392-2.117-0.614-3.051
		c-0.672-4.137,0.023-6.359,2.084-6.658c0.523,0.381,0.726,2.204,0.619,5.478c0.295,0.842,1.06,1.558,2.266,2.138
		c1.032,1.951,1.256,3.44,0.672,4.453c2.505,0.911,3.607,1.819,3.317,2.72c-1.198,0.853-1.306,1.759-0.302,2.72
		c0.784,2.281-0.018,3.085-2.398,2.405c-1.957,0.05-1.16,0.879,2.398,2.509c2.804,2.26,3.671,3.759,2.608,4.489
		c-2.427,0.15-3.479,0.639-3.166,1.464c0.08,1.329,1.921,2.562,5.527,3.712c0.755,0.733,1.306,1.349,1.65,1.848v1.522
		c-0.244,0.074-0.589,0.09-1.036,0.046c-1.661-1.323-2.771-1.301-3.344,0.065c-0.17,1.853,0.618,2.971,2.364,3.355
		c0.536,1.122,1.209,1.733,2.017,1.832v39.474h12.553v32.708H608.25c-138.51-0.72-228.146-1.177-236.909-2.938
		c-36.021-7.237,74.949-15.31,22.178-16.166c-121.236-1.966-295.642-6.887-334.505-6.288c-2.317,0.544-4.509,1.077-6.754,1.615
		v-8.93H52.262z M63.381,189.717c2.565,0.927,3.634,1.885,3.204,2.871c-2.353,1.314-2.553,2.651-0.594,4.02
		c1.29,2.764,0.413,4.08-2.61,3.935L63.381,189.717L63.381,189.717z"/>
	<path class="st0" d="M32.74,360.914V244.23v-13.149l-0.037-0.156C31.184,143.8,105.88,86.762,203.329,60.138
		c42.422-11.589,89.191-17.385,136.058-17.385s93.636,5.797,136.058,17.385c97.449,26.623,172.143,83.663,170.626,170.787
		l-0.037,0.156v13.149v116.684h17.974V244.23v-13.149h-0.034c1.625-98.238-79.045-161.58-184.315-190.339
		c-43.954-12.008-92.164-18.013-140.272-18.013c-48.108,0-96.319,6.005-140.272,18.013C93.843,69.503,13.173,132.843,14.8,231.081
		h-0.034v13.149v116.684H32.74z"/>
	<path class="st0" d="M55.578,361.223c62.702,173.14,504.912,173.142,567.619,0h21.779
		c-18.789,65.32-85.168,109.354-167.647,131.888c-43.009,11.749-90.427,17.626-137.941,17.626
		c-47.517,0-94.932-5.877-137.941-17.626c-82.478-22.533-148.858-66.566-167.646-131.888H55.578z M14.766,361.223
		c18.359,76.204,91.289,126.658,182.408,151.552c44.562,12.175,93.438,18.262,142.213,18.262c48.772,0,97.652-6.088,142.214-18.262
		c91.12-24.895,164.05-75.348,182.409-151.552"/>
	<path class="st3" d="M516.781,343.358c0.993-0.093,2.067-0.231,3.22-0.413c1.457-7.586,1.336-19.838-0.36-36.753
		c-2.027-1.226-3.087-1.471-4.017-0.171C517.359,321.872,517.745,334.316,516.781,343.358"/>
	<path class="st2" d="M243.493,355.969l-3.803-5.787l-0.361,10.155L243.493,355.969z M119.45,316.45l0.678-14.68l-22.616,23.011
		L119.45,316.45z M400.971,339.469c-3.886-0.828-7.997-1.731-12.332-2.706l-1.292,2.101l5.023,9.424l12.779-7.936
		C403.774,340.064,402.382,339.769,400.971,339.469z M342.686,325.569c-6.284-1.636-12.804-3.376-19.561-5.219l-3.378,3.238
		l2.599,16.062l28.769-11.91C348.358,327.039,345.548,326.314,342.686,325.569z M267.766,304.458
		c-8.053-2.42-16.323-4.951-24.806-7.59l-0.751,15.982l7.62,10.921l34.869-14.284C279.167,307.866,273.523,306.189,267.766,304.458z
		 M183.561,277.743c-10.814-3.586-21.15-7.06-31.014-10.419l-3.351,2.488l-0.77,35.636l55.406-21.041
		C197.307,282.281,190.547,280.062,183.561,277.743z M577.441,221.074l0.042,0.034l0.07,0.009
		C577.475,221.077,577.416,221.043,577.441,221.074z M428.556,56.819c2.522,1.589,5.015,3.16,7.627,4.763l0.101,0.066
		c2.339,1.527,2.694,1.336,4.022,0.618c0.491-0.266,1.055-0.569,1.81-0.951l15.242-7.699l0.084-0.034
		c2.697-1.29,4.959-2.199,7.202-2.377c2.929-0.232,5.41,0.631,7.765,3.105l0.182,0.217l20.091,24.141
		c0.913-0.404,1.773-0.682,2.581-0.834c2.865-0.538,5.111,0.263,6.734,2.398l0.006-0.003l21.93,28.568
		c1.077-0.112,2.146,0.007,3.202,0.359c1.97,0.655,3.629,2.072,4.971,4.244l0.005-0.003l20.713,29.77
		c0.964,0.103,1.902,0.401,2.81,0.893l0.637,0.344l0.512,0.572l2.946,3.294l0.344,0.385l0.205,0.365l23.404,41.597l0.117,0.209
		l0.133,0.34c1.614,4.157,1.982,8.469,1.104,12.929c-0.814,4.139-2.717,8.385-5.703,12.734c-0.895,1.837-1.401,3.277-1.514,4.315
		c-0.009,0.087-0.157,0.025-0.267-0.028l-0.07-0.009c0.678,0.533,1.357,0.754,2.033,0.661c1.145-0.158,2.531-0.949,4.157-2.367
		l0.513-0.449l0.57-0.251c1.817-0.802,3.487-1.24,5.004-1.307c2.089-0.094,3.856,0.483,5.302,1.731l0.336,0.29l0.23,0.292
		l3.042,3.865c1.283,1.26,1.871,2.786,1.762,4.574l0.398,0.473l2.228,2.656c1.274,1.406,2.054,2.934,2.332,4.576
		c0.306,1.805-0.018,3.584-0.972,5.332l-0.386,0.706l-0.546,0.476c-0.805,0.699-1.448,1.296-1.928,1.787
		c0.229,0.602,0.383,1.192,0.461,1.767c0.278,2.044-0.292,3.737-1.711,5.084c-1.558,1.586-3.395,2.176-5.518,1.765
		c0.302,0.719,0.8,1.541,1.495,2.466l0.118,0.157l0.099,0.159c1.049,1.702,1.674,3.295,1.867,4.778
		c0.28,2.148-0.238,3.989-1.558,5.523l-0.406,0.47l-0.508,0.324c1.962,7.708,3.136,14.918,3.501,21.63
		c0.394,7.223-0.142,13.873-1.63,19.952l5.07,14.435l24.88,35.366l-23.879-11.712l4.253,23.651H301.607l-3.029-24.402
		l-22.196,24.091l-0.256,0.311H196.19v-12.763l-8.071,12.763h-27.284l36.826-55.719l2.172-6.227l-5.161,1.72l0.001,0.005
		l-46.723,17.675l-0.919,42.546H116.98l1.448-31.379l-54.901,20.77l-13.271,1.547l0.194-24.39l45.92-56.427l-19.163,4.561
		l3.533-12.643l35.999-17.063l-47.524-21.412c0,0-19.414-9.08-0.926-30.34c146.623,49.363,279.489,91.304,279.489,91.304
		l-0.206-0.002c5.119,1.463,10.136,2.89,15.048,4.283c74.895,21.249,124.279,29.584,155.432,27.809
		c0.187-2.818,0.269-6.089,0.233-9.645c-0.029-3.018-0.142-6.25-0.341-9.602c-1.008,0.464-1.975,0.842-2.89,1.135
		c-3.588,1.15-6.75,1.084-8.989-0.17l-0.495-0.279l-0.422-0.422l-3.032-3.029l-0.26-0.261l-0.205-0.289
		c-1.587-2.233-2.369-4.519-2.345-6.851c0.015-1.495,0.352-2.932,1.012-4.312l-1.426-2.802l0.01-0.004
		c-1.284-2.423-1.493-4.834-0.629-7.232c0.53-1.474,1.458-2.842,2.779-4.101c0.062-0.363,0.155-0.728,0.276-1.096l0.053-0.155
		c-2.119,0.475-4.398,0.747-6.837,0.814c-3.45,0.094-7.225-0.229-11.319-0.969l-0.458-0.083l-0.341-0.133
		c-2.929-1.147-5.628-3.399-8.096-6.75c-2.181-2.961-4.239-6.884-6.175-11.766l-0.066-0.167l-15.856-45.41l-0.085-0.284
		c-0.482-1.762-0.469-3.368,0.036-4.815c0.38-1.088,0.983-1.999,1.811-2.736L434.339,170.1l-0.22-0.39l-0.147-0.51
		c-0.427-1.465-0.384-2.967,0.124-4.494c0.082-0.247,0.175-0.491,0.279-0.734l-20.006-29.609c-0.781-0.953-1.303-2.045-1.567-3.277
		c-0.204-0.961-0.239-1.973-0.103-3.033l-22.184-26.724l-0.685-0.825l-0.214-1.039c-0.361-1.751-0.498-3.248-0.419-4.486
		c0.113-1.722,0.62-3.132,1.518-4.226c-14.753-8.652-30.924-13.82-48.505-15.501c-18.755-1.794-39.176,0.367-61.257,6.483
		c-16.59,20.009-29.933,46.508-37.194,80.726l-28.339-1.133c1.389-9.354,3.124-24.89,6.04-38.71
		c3.719-23.339,10.442-42.149,20.176-56.426c9.999-14.669,23.119-24.553,39.353-29.645l0.3-0.084
		c5.405-1.273,11.278-2.04,17.616-2.291c6.14-0.244,12.683-0.003,19.622,0.724l16.331-1.167c9.386-2.117,18.827-2.875,28.325-2.273
		c9.582,0.606,19.225,2.601,28.921,5.982C404.839,41.875,417.025,49.554,428.556,56.819z"/>
	<path class="st0" d="M433.968,65.214c-13.544-8.313-28.18-18.506-43.264-23.765c-18.635-6.498-37.05-7.665-55.243-3.496
		c0,0-5.661,0.405-16.984,1.214c-13.802-1.479-25.876-0.999-36.221,1.442c-30.584,9.593-49.476,37.307-56.676,83.137
		c-3.448,9.353-8.257,28.424-10.871,41.755c2.91-1.048,5.481,1.315,8.246,3.533c3.23,3.054,8.897,7.57,11.76,9.191
		c0,0,2.423-2.369,8.333-8.748c1.664-15.132,6.437-37.762,10.41-48.338c6.075-16.174,14.436-30.558,25.081-43.15
		c46.126-13.053,85.431-9.293,117.914,11.279c0.934,0.747,1.199,1.319,0.795,1.72c-2.08,1.559-3.12,2.34-3.12,2.34
		c-0.794,0.793-0.909,2.554-0.345,5.286c14.958,18.024,22.436,27.035,22.436,27.035c0.908,1.451,1.168,2.289,0.781,2.513
		c-0.298,1.517-0.039,2.731,0.777,3.639c14.444,21.375,21.666,32.061,21.666,32.061c-1.289,1.523-1.753,2.909-1.387,4.162
		c14.441,25.765,21.662,38.648,21.662,38.648c-1.446,0.808-2.168,1.214-2.168,1.214c-1.364,0.661-1.798,1.902-1.299,3.727
		c10.571,30.271,15.856,45.408,15.856,45.408c3.588,9.05,7.544,14.422,11.87,16.117c7.612,1.376,13.937,1.204,18.98-0.52
		c1.549,0.966,2.761,2.439,3.635,4.417c-1.234,1.355-1.639,2.569-1.214,3.641c-3.243,2.292-4.139,4.777-2.687,7.452
		c1.677,3.294,2.516,4.94,2.516,4.94c-2.17,2.689-2.201,5.52-0.089,8.491c2.021,2.02,3.032,3.031,3.032,3.031
		c2.335,1.311,7.593-0.134,13.519-4.333c1.101,12.013,1.115,23.394,0.301,30.327c-60.964,5.247-195.034-30.565-462.26-130.6
		c-2.712,7.71-4.241,17.191-4.585,28.438c255.341,92.967,418.251,132.451,488.717,118.448c45.108-9.797,59.633-37.031,47.145-82.154
		c1.731-1.097,2.597-1.647,2.597-1.647c0.997-1.158,0.766-2.921-0.694-5.286c-3.442-4.583-3.587-8.31-0.435-11.179
		c2.131,2.074,3.749,2.535,4.853,1.388c0.839-0.736,0.666-2.008-0.519-3.814c-0.369-0.768,0.931-2.443,3.898-5.027
		c0.964-1.763,0.675-3.468-0.866-5.113c-1.503-1.792-2.253-2.687-2.253-2.687c-1.124-0.628-2.019-0.858-2.688-0.694
		c1.5-1.919,1.704-3.334,0.607-4.247c-2.136-2.715-3.207-4.073-3.207-4.073c-1.177-1.015-3.112-0.929-5.805,0.262
		c-4.542,3.96-8.498,4.508-11.874,1.645c-1.692-1.559-1.347-4.735,1.036-9.534c5.516-7.907,6.96-15.245,4.333-22.012
		c-15.602-27.733-23.404-41.598-23.404-41.598c-1.964-2.196-2.946-3.292-2.946-3.292c-1.01-0.548-1.948-0.576-2.818-0.087
		c-14.793-21.262-22.189-31.893-22.189-31.893c-1.667-2.83-3.747-3.525-6.24-2.08c-15.834-20.627-23.75-30.94-23.75-30.94
		c-1.125-1.494-3.437-1.061-6.935,1.3c-14.907-17.912-22.36-26.868-22.36-26.868c-2.703-2.841-5.546-1.987-10.055,0.17
		l-15.242,7.701C439.412,67.446,439.149,68.595,433.968,65.214"/>
	<g>
		<g>
			<defs>
				<path id="SVGID_00000173142090561915674470000004476411231492241836_" d="M244.263,80.691c0.597-1.475,0.77-1.071,0.522,1.213
					c-0.433,2.695-1.747,7.577-3.943,14.649c-0.7,1.31-1.163,0.529-1.386-2.341c-1.272,4.408-2.356,7.006-3.251,7.799
					c2.253-7.856,3.379-11.786,3.379-11.786c0.497-1.39,0.873,0.243,1.128,4.897C243.079,85.501,244.263,80.691,244.263,80.691
					 M288.457,66.65c0.105,1.194-0.501,1.772-1.82,1.732c0,0-2.974-4.765-8.926-14.3c1.895,14.932,2.183,20.623,0.866,17.073
					c0,0-0.692-5.373-2.08-16.118c0,0-1.617,6.152-4.853,18.458c-0.103,0.182-2.69,2.946-3.59,0.759
					c-0.709-1.727-2.499-5.644-5.368-11.752c0.029,14.021-0.349,19.291-1.138,15.804c0.006,0.771-0.052-3.618-0.172-13.172
					c0,0-2.296,5.951-6.889,17.853c-0.303,1.378-0.954,2.057-1.95,2.037c0.055-0.036-0.667-2.465-2.168-7.28
					c-0.363-1.355-0.724-1.617-1.081-0.779c-0.565,7.282-1.272,11.529-2.123,12.738c0.026-1.655,0.401-4.834,1.127-9.532
					c-2.592,7.807-4.458,12.429-5.6,13.867c0,0,2.345-6.586,7.031-19.759c0.439-0.76,0.915-0.615,1.427,0.432
					c1.358,5.315,2.036,7.973,2.036,7.973c1.588-12.683,2.382-19.023,2.382-19.023c-0.717,11.092-1.063,16.667-1.038,16.727
					c5.082-13.232,7.625-19.848,7.625-19.848c-0.096-2.313,0.57-1.907,1.993,1.214c2.889,7.338,4.333,11.008,4.333,11.008
					c0.375-12.047,0.563-18.07,0.563-18.07c0.334-1.892,0.768-1.719,1.301,0.52c-0.176,11.785-0.261,17.679-0.261,17.679
					c1.431-0.862,3.482-8.314,6.152-22.359c6.702,10.111,10.054,15.166,10.054,15.166c-1.503-12.191-2.254-18.286-2.254-18.286
					C283.642,43.17,284.942,50.162,288.457,66.65z M303.015,48.146c2.826,9.23,4.53,15.006,5.111,17.334
					c-1.533,0.338-6.241-5.036-14.124-16.118c4.951,14.148,6.308,19.463,4.072,15.944c0,0-1.675-5.026-5.026-15.079
					c-1.34,14.321-2.177,19.722-2.514,16.206c0,0,0.376-6.297,1.126-18.891c0.9-2.361,2.23-2.187,3.987,0.519
					c6.991,9.707,10.487,14.56,10.487,14.56C304.056,52.972,303.015,48.146,303.015,48.146z M321.387,47.8
					c4.396,9.448,6.594,14.173,6.594,14.173c0.73,1.752,0.44,2.602-0.874,2.553c0,0-4.969-5.055-14.905-15.164
					c-0.215,13.628-0.532,18.567-0.954,14.817c0,0-0.116-5.603-0.347-16.811c0.71-1.73,1.837-1.469,3.381,0.779
					c8.376,9.592,12.564,14.387,12.564,14.387C323.207,52.71,321.387,47.8,321.387,47.8z M330.4,49.101
					c-1.717-2.504-1.315,2.435,1.213,14.818C332.286,64.171,331.883,59.23,330.4,49.101z M347.299,64.698
					c0.827,1.298,0.364,1.443-1.386,0.435c-10.947-11.963-13.546-15.574-7.8-10.833C344.239,61.232,347.299,64.698,347.299,64.698z
					 M351.457,66.733c0,0-1.703-3.711-5.112-11.136C343.5,52.927,345.666,56.987,351.457,66.733z M355.918,59.8
					c5.664,6.701,8.495,10.052,8.495,10.052C362.699,70.666,359.867,67.314,355.918,59.8z M241.264,142.734
					c-11.844,8.666-17.766,13.001-17.766,13.001s5.431-1.041,16.293-3.121c4.426-0.087-1.121,1.415-16.641,4.507
					c-2.458-0.877-2.429-2.092,0.089-3.641c7.786-5.937,11.743-8.8,11.872-8.579c-7.626,0.925-11.439,1.386-11.439,1.386
					c-4.671,0.02,0.096-0.992,14.298-3.033c-8.261-2.542-12.393-3.814-12.393-3.814
					C221.075,137.513,226.304,138.611,241.264,142.734z M226.789,133.722c-4.49,4.489,0.623,1.138,15.34-10.052
					C240.84,123.428,235.727,126.78,226.789,133.722z M225.837,136.495c1.338-1.928,7.434-3.489,18.286-4.679
					C231.932,134.936,225.837,136.495,225.837,136.495z M246.459,99.058c10.783-7.745,15.06-10.112,12.825-7.106
					C250.734,96.69,246.459,99.058,246.459,99.058z M236.406,113.876c12.473-10.221,17.761-13.573,15.857-10.053
					C241.692,110.524,236.406,113.876,236.406,113.876z M236.903,119.291c10.46,1.547,14.873,1.879,10.422,1.95
					c-7.99-0.407-12.44-0.956-13.347-1.646c0,0,5.315-2.514,15.946-7.54C242.182,116.561,236.903,119.291,236.903,119.291z
					 M263.547,89.036c-10.65,17.315-17.461,38.813-20.434,64.497c3.909-27.062,12.971-50.517,27.185-70.36
					C267.844,84.473,265.594,86.427,263.547,89.036z M362.469,71.968c-23.701-5.662-51.19-6.036-74.93,0.137
					c-26.089,6.786-46.37,21.564-59.57,49.087c9.673-26.245,29.305-43.17,58.894-51.438
					C309.066,63.549,340.888,64.72,362.469,71.968z M344.884,38.959c-0.681-0.306-1.752-0.412-3.213-0.321
					c-1.646,1.299-6.124,2.253-13.434,2.859c-1.239,0.396-0.82,0.54,1.259,0.433c7.391-0.737,12.403-1.722,15.029-2.95
					 M344.884,38.959c-0.681-0.306-1.752-0.412-3.213-0.321c-1.646,1.299-6.124,2.253-13.434,2.859
					c-1.239,0.396-0.82,0.54,1.259,0.433c7.391-0.737,12.403-1.722,15.029-2.95"/>
			</defs>
			<clipPath id="SVGID_00000114037221502618518790000013944564628371105452_">
				<use xlink:href="#SVGID_00000173142090561915674470000004476411231492241836_"  style="overflow:visible;"/>
			</clipPath>
			
				<linearGradient id="SVGID_00000021091824889412807990000010386808888327383448_" gradientUnits="userSpaceOnUse" x1="838.8012" y1="-842.251" x2="839.0365" y2="-842.251" gradientTransform="matrix(-13.545 -322.7306 -317.4259 13.3224 -255698.4375 282039.3438)">
				<stop  offset="0" style="stop-color:#B3B3B3"/>
				<stop  offset="1" style="stop-color:#FFFFFF"/>
			</linearGradient>
			
				<polygon style="clip-path:url(#SVGID_00000114037221502618518790000013944564628371105452_);fill:url(#SVGID_00000021091824889412807990000010386808888327383448_);" points="
				369.38,156.912 364.157,32.454 214.033,38.755 219.256,163.213 			"/>
		</g>
	</g>
	<path class="st5" d="M509.5,267.63c23.167-12.031,40.904-25.03,53.209-38.997C548.278,241.173,530.541,254.173,509.5,267.63
		 M576.669,193.277c0.04,10.969-3.08,20.329-9.362,28.078c3.967-9.994,5.588-19.208,4.855-27.643c0,0-0.607,0.26-1.82,0.779
		c0,0-1.473-0.49-4.42-1.473c4.045-2.541,6.067-3.813,6.067-3.813C572.724,189.192,574.286,190.55,576.669,193.277z
		 M479.085,261.304c4.579,5.191,11.482,8.513,20.713,9.967c-11.081,0.331-18.101-1.721-21.06-6.154
		c-0.841-1.104-1.649-2.577-2.427-4.419c0,0,0.636-0.578,1.907-1.733c0,0,0.03-1.214,0.088-3.641c1.656,2.43,3.33,4.569,5.026,6.414
		C480.5,261.449,479.085,261.304,479.085,261.304z"/>
	<path class="st6" d="M518.163,285.611c0.877,0.49,2.25-0.319,4.117-2.427c0.716-0.614,0.817-1.379,0.304-2.296
		c-3.147-2.705-6.353-6.286-9.62-10.745c-1.953,0.808-3.109,1.763-3.466,2.86c3.985,5.142,5.98,7.713,5.98,7.713
		c-1.852-1.034-4.019-3.346-6.502-6.933c-0.524,0.282-0.74,0.585-0.649,0.909C510.761,278.638,514.039,282.28,518.163,285.611
		 M578.277,241.611c0.298,0.537,0.786,1.163-0.062,1.925c0,0-0.838,0.621-2.513,1.864c-0.594,0.55-1.171,0.722-1.733,0.52
		c-3.713-1.898-7.525-6.087-11.441-12.567c1.469-1.672,2.568-2.279,3.294-1.819c2.73,3.81,5.027,6.483,6.889,8.016
		c-2.567-3.229-4.559-6.204-5.979-8.926c0.747-0.789,1.247-1.343,1.886-0.473C572.137,234.952,575.137,238.555,578.277,241.611z
		 M597.582,237.859c-0.173,0.982-0.26,1.473-0.26,1.473c1.234-0.971,1.724-1.925,1.474-2.86c-1.461-2.617-3.02-3.396-4.68-2.34
		c0.762,1.764-1.982,4.392-8.232,7.886c2.621,0.163,6.057-1.774,10.312-5.805C596.895,236.798,597.356,237.347,597.582,237.859z
		 M510.684,301.618c0.439,0.366,1.335,0.51,2.687,0.434c-1.658,0.829-2.958,1.002-3.9,0.519c0,0-0.809-0.867-2.426-2.6
		c-1.821-1.541-1.85-3.128-0.087-4.766c-0.486,1.929,0.352,2.39,2.514,1.386c1.626-0.628,4.082-2.045,7.366-4.246
		c4.594-0.439-5.945,6.347-8.059,7.02C510.048,300.868,510.684,301.618,510.684,301.618z"/>
	<g>
		<g>
			<defs>
				<path id="SVGID_00000149380694815808122660000007744879589905173685_" d="M382.262,44.441c1.409-0.135,1.885,0.081,1.43,0.648
					c0.322,0.246-7.378,3.394-23.098,9.448c-1.131-0.022-1.505-0.34-1.126-0.954c1.485-0.523,3.103-1.316,4.854-2.382
					c0,0,3.655-2.775,10.962-8.321c0.995-0.389,1.241-0.204,0.738,0.563c-4.773,3.965-7.652,6.253-8.636,6.865
					c-0.227,0.14-0.353,0.193-0.377,0.155l0.377-0.155C377.873,46.013,382.832,44.056,382.262,44.441 M352.412,49.899
					c9.84-3.243,17.134-5.727,21.884-7.453c0.463-0.494,0.116-0.77-1.04-0.823c-3.93,1.718-8.466,3.294-13.607,4.723
					c0,0,2.573-1.733,7.714-5.199c0.232-0.405-0.015-0.592-0.736-0.564c-1.796,1.249-4.975,3.285-9.534,6.11
					c-4.304,1.589-6.456,2.383-6.456,2.383C350.143,49.651,350.736,49.925,352.412,49.899z M363.941,40.021
					c1.093-0.222,1.382-0.005,0.866,0.651c0,0-5.258,1.632-15.772,4.895c0.331-0.041-1.257,0.392-4.768,1.301
					c-0.757,0.04-0.874-0.25-0.346-0.867c2.656-0.809,3.985-1.214,3.985-1.214c4.863-2.366,8.011-4.085,9.447-5.156
					c0.802-0.184,1.091,0.005,0.868,0.564c-3.555,2.022-5.331,3.032-5.331,3.032C358.138,41.634,361.821,40.564,363.941,40.021z
					 M353.456,39.07c1.969-0.172,2.546,0.016,1.734,0.562c0,0-6.139,1.517-18.415,4.552c-1.055-0.016-1.833-0.233-2.342-0.652
					c3.195-0.561,6.345-1.457,9.447-2.686c2.144-1.04,4.295-1.706,6.457-1.994l-4.503,1.992l-0.003,0.001l-0.001,0.001l0.001-0.001
					l0.003-0.001L353.456,39.07z M430.925,72.008c0.592,0.29,1.818-0.173,2.298-0.865c0.546-0.43-4.318-3.98-5.191-4.652
					c-25.947-19.868-50.905-29.216-74.878-28.038c24.575,0.636,48.532,10.219,71.865,28.744
					C426.034,68.003,429.911,71.168,430.925,72.008z M401.813,86.529c-28.978-24.68-55.517-39.543-79.619-44.589
					c-20.452-4.281-41.579-1.34-56.093,8.364c37.122-18.999,81.377-6.779,132.765,36.655
					C400.012,88.057,401.018,88.122,401.813,86.529z M422.728,73.165c-3.41,2.426-5.113,3.639-5.113,3.639s-5.46,1.994-16.38,5.98
					c-1.298-0.58-0.777-1.474,1.56-2.687c5.035-3.961,9.859-8.237,14.472-12.825c0,0-7.684,3.006-23.051,9.013
					c-1.379,0.348-1.898-0.059-1.56-1.214c0,0,1.185-0.722,3.553-2.166c0,0,4.131-4.13,12.393-12.392
					c-3.21,1.652-11.066,4.628-23.572,8.927c-1.609-0.002-2.028-0.378-1.254-1.126c5.653-4.018,11.098-8.755,16.337-14.212
					c0,0-7.568,3.41-22.706,10.226c-1.191,0.369-1.796,0.139-1.821-0.693c4.465-2.98,9.909-7.819,16.337-14.515
					c0,0-7.771,3.309-23.313,9.923c-1.62,0.327-2.125,0-1.516-0.985c1.74-0.387,3.47-1.15,5.187-2.29c0,0,3.874-3.3,11.627-9.898
					c0.963-0.594,1.381-0.509,1.255,0.259c-5.342,5.309-8.085,7.851-8.232,7.627c7.783-2.886,12.694-4.749,14.733-5.589
					c0.944-0.024,1.292,0.251,1.039,0.821c0.94,0.131,1.229,0.393,0.866,0.781c-3.304,3.227-7.131,6.752-11.483,10.573
					c12.452-5.17,18.676-7.756,18.676-7.756c1.145-0.116,1.635,0.172,1.472,0.865c-2.792,4.211-7.955,9.119-12.006,12.089
					c8.033-2.172,15.344-5.363,19.934-7.454c1.462,0.277,2.184,0.826,2.165,1.647c-7.452,7.106-11.178,10.659-11.178,10.659
					c11.901-3.755,17.85-5.632,17.85-5.632c1.913,0.121,2.634,0.671,2.167,1.647c-8.608,7.626-12.912,11.439-12.912,11.439
					C417.904,74.724,422.728,73.165,422.728,73.165z"/>
			</defs>
			<clipPath id="SVGID_00000127031799869196775020000005943928686152574362_">
				<use xlink:href="#SVGID_00000149380694815808122660000007744879589905173685_"  style="overflow:visible;"/>
			</clipPath>
			
				<linearGradient id="SVGID_00000153699408995341986190000006279321406087302811_" gradientUnits="userSpaceOnUse" x1="838.4388" y1="-843.524" x2="838.7917" y2="-843.524" gradientTransform="matrix(-13.2097 -137.6123 -472.5646 45.3626 -387191.0625 153735.5938)">
				<stop  offset="0" style="stop-color:#B3B3B3"/>
				<stop  offset="1" style="stop-color:#FFFFFF"/>
			</linearGradient>
			
				<polygon style="clip-path:url(#SVGID_00000127031799869196775020000005943928686152574362_);fill:url(#SVGID_00000153699408995341986190000006279321406087302811_);" points="
				439.173,87.603 432.238,15.358 260.697,31.825 267.632,104.07 			"/>
		</g>
	</g>
	<path class="st8" d="M473.53,226.471c-4.852,3.754-7.279,5.632-7.279,5.632s-2.244-6.571-6.729-19.71
		c-0.715-1.271-0.495-2.414,0.664-3.429c60.892-38.594,91.339-57.889,91.339-57.889c12.452,22.984,18.677,34.476,18.677,34.476
		c-3.785,3.131-5.678,4.696-5.678,4.696c-13.288-21.146-19.934-31.718-19.934-31.718c-51.79,33.409-77.847,49.759-78.167,49.049
		C471.162,220.174,473.53,226.471,473.53,226.471 M563.844,195.357c2.251,16.227,1.964,25.702-0.862,28.425
		c-8.445,8.474-25.892,21.471-52.345,38.998c-4.942,3.624-9.275,5.357-12.998,5.2c-12.346-6.01-21.012-14.328-25.998-24.957
		c16.468-17.64,37.44-34.452,62.917-50.436c-15.857,7.803-38.042,23.026-66.549,45.672c0,0-0.401-0.807-1.205-2.421
		c24.927-21.367,57.507-42.857,86.921-57.544C560.469,189.671,563.844,195.357,563.844,195.357z M492.66,90.401
		c0,0-22.213,12.71-64.04,36.744l19.916,29.793l-7.265,4.698c0,0-7.018-10.196-21.057-30.59c-0.738-1.607-0.333-2.936,1.213-3.987
		c0,0,24.497-13.691,73.49-41.078c1.31-0.605,2.435-0.346,3.379,0.779c12.247,16.395,19.236,25.638,20.969,27.732
		c-3.696,2.369-5.544,3.554-5.544,3.554C499.68,99.616,492.66,90.401,492.66,90.401z M482.308,89.58l7.496-4.807
		c0,0-7.336-8.608-22.011-25.825c-1.334-1.227-3.761-0.824-7.28,1.215c0,0-21.059,11.237-63.176,33.711
		c-1.188,1.288-1.273,2.675-0.26,4.157c14.27,18.371,21.404,27.557,21.404,27.557c3.408-2.368,5.114-3.553,5.114-3.553
		c-13.346-19.413-20.02-29.118-20.02-29.118c38.421-20.569,57.631-30.853,57.631-30.853L482.308,89.58z M539.486,154.023
		l8.714-4.982c0,0-7.163-10.284-21.491-30.852c-1.55-1.923-3.355-2.196-5.415-0.821c0,0-26.288,15.715-78.862,47.143
		c-1.68,1.575-2.098,3.236-1.257,4.984c13.748,23.339,20.622,35.009,20.622,35.009c4.506-2.659,6.758-3.988,6.758-3.988
		c-13.519-22.877-20.884-35.617-20.884-35.617c47.257-28.135,70.886-42.204,70.886-42.204
		C531.96,142.803,539.486,154.023,539.486,154.023z"/>
	<path class="st0" d="M235.552,346.931l5.372-2.599l7.974,12.132l-14.213,14.905L235.552,346.931z M259.126,347.105l-5.375-7.453
		l19.759-7.972L259.126,347.105z M322.038,368.77l-1.907-11.959l18.026-6.24L322.038,368.77z M123.568,319.436l1.32-28.575
		l-44.024,44.792L123.568,319.436z M45.506,371.629l-21.263-6.5l83.314-91.598l-48.298,17.701v-11.725l76.723-26.774
		c13.171,4.621,19.756,6.931,19.756,6.931c-7.165,5.314-10.747,7.972-10.747,7.972l-0.951,44.026l80.332-30.506l14.907,3.466
		l-1.387,29.465l10.399,14.905l57.543-23.572l17.679,8.667l-8.32,7.972l3.813,23.571l45.629-18.887l17.113,0.17l6.241,2.772
		l-5.547,9.012l8.32,15.601l33.576-20.854l15.648,6.294l-3.813,9.359l26.345-6.586l84.233-6.241l46.577-27.855l5.766,16.417
		l38.041,44.12l-15.161-1.136l-15.6-14.905l4.831,19.034H306.149l-4.474-36.02l-28.424,30.85l-4.242,5.17h-68.554V342.51
		l-18.616,29.434h-17.21l36.866-55.778l5.2-14.906l-13.519,4.505l-49.412,18.692l-1.026,47.488h-21.593l1.829-39.622l-61.822,23.386
		L45.506,371.629z"/>
	<path class="st9" d="M135.847,321.583l76.825-30.119c0,0,0.578,0.346,1.734,1.04c1.97-2.343,2.432-4.249,1.386-5.72l-79.735,31.044
		L135.847,321.583z M72.453,342.595c0,0,3.278,2.555,12.709-1.142l37.956-14.88l0.212-3.788L72.453,342.595z M127.744,261.135
		c1.404,2.982,3.6,4.773,6.586,5.373c0,0,1.964-0.174,5.894-0.521c-3.266-0.849-5.981-2.524-8.146-5.026l-2.6-3.118l-86.317,29.984
		C99.55,270.033,127.744,261.135,127.744,261.135z M44.02,358.03c0,0,25.258-28.145,75.058-83.376
		c1.069-3.507-1.241-4.373-6.932-2.599c-27.867,30.996-49.326,53.427-62.92,69.767C43.315,348.925,43.421,354.863,44.02,358.03z
		 M179.837,355.253c0,0,9.093-13.643,33.704-50.617c0,0,0.058-2.196,0.174-6.587c1.822-2.146,3.324-5.267,4.505-9.359
		c2.015-0.274,2.941,0.881,2.774,3.468c-2.08,36.626-3.119,65.871-3.119,65.871c-0.022-21.864-0.658-44.351-1.908-45.593
		c-10.68,15.05-15.698,22.123-18.027,25.406C194.201,343.11,184.124,354.656,179.837,355.253z M255.721,365.503l-0.966,0.945h-11.21
		l7.416-7.478L255.721,365.503z M291.882,324.565c0.078,1.274-0.037,3.238-0.348,5.893c-7.975,9.207-19.976,18.876-29.375,18.606
		l18.804-20.339C288.095,325.782,291.735,324.395,291.882,324.565z M251.065,333.84c-0.868-1.906-1.3-2.86-1.3-2.86
		c33.046-13.404,49.569-20.106,49.569-20.106c2.115-0.073,4.456,1.11,7.021,3.553c-2.487,3.004-3.729,4.506-3.729,4.506
		c-0.9-2.836-2.227-3.964-3.985-3.38C266.922,327.745,251.065,333.84,251.065,333.84z M319.933,348.67
		c29.58-11.901,42.84-17.518,42.84-17.518c4.106-2.143,7.282-1.911,9.531,0.693c-0.693,2.657-1.039,3.986-1.039,3.986
		c-2.183-2.449-4.379-3.489-6.586-3.12c-8.951,3.697-16.59,6.849-22.912,9.461C337.503,343.926,324.678,349.134,319.933,348.67z
		 M312.853,358.03c-2.236,0-7.005-16.201-8.317-29.654c1.112-6.732,2.44-8.927,3.985-6.584
		C311.731,348.397,312.853,358.03,312.853,358.03z M336.823,358.03c1.738-1.969,9.657-10.934,9.657-10.934
		c9.706-4.043,14.56-6.065,14.56-6.065c0.464,2.554-0.806,5.5-3.814,8.839C351.342,355.647,346.774,358.03,336.823,358.03z
		 M375.247,339.814c-0.965-3.746-8.625,8.319-13.271,17.619c6.239,2.871,15.75-9.866,15.871-10.166
		C377.847,347.267,376.98,344.784,375.247,339.814z M393.306,357.233c19.181-12.249,27.005-17.245,27.005-17.245
		c3.828-0.913,7.122,0.126,9.879,3.121c-3.003,3.003-4.505,4.505-4.505,4.505c0.487-3.619-0.783-4.947-3.812-3.986
		c-6.73,4.094-12.28,7.47-16.648,10.128C399.314,357.352,397.724,357.486,393.306,357.233z M494.665,352.988
		c-8.884,5.802-16.009,10.286-21.382,13.46h-8.193l0.283-0.289c16.063-10.054,24.093-15.078,24.093-15.078
		C494.798,351.034,496.53,351.67,494.665,352.988z M465.668,349.091c-13.522,8.83-22.973,14.615-28.36,17.357h-4.651
		c0.705-0.995,1.943-2.389,3.719-4.186c16.061-10.052,24.093-15.078,24.093-15.078C465.802,347.137,467.534,347.772,465.668,349.091
		z M592.416,320.922c-2.231,2.61,1.756,15.782,11.96,39.517C604.376,360.439,600.391,347.267,592.416,320.922z M590.857,360.267
		c4.969,3.927,7.453,5.892,7.453,5.892s-4.161-11.728-12.48-35.185C581.853,331.856,583.527,341.62,590.857,360.267z
		 M572.311,340.506c-0.465,13.255,2.805,21.903,9.808,25.942h1.142L572.311,340.506z M518.235,351.771
		c-1.525,1.96-8.478,6.852-20.86,14.678h-1.92C507.934,355.306,515.528,350.414,518.235,351.771z M124.872,353.565
		c-0.061,3.544,0.731-21.003,2.523-71.806c0.876-6.634,3.304-10.793,7.28-12.481c-1.453,34.485-2.001,47.46-2.539,60.275
		C131.665,340.794,128.606,352.721,124.872,353.565z"/>
	<g>
		<g>
			<defs>
				<path id="SVGID_00000098937646321365373990000010937979695759938710_" d="M581.83,299.558c0.566-2.375,0.958-4.894,1.146-7.581
					c-0.916,0.864-2.054,1.853-3.414,2.967c1.261,0.394,1.838,0.979,1.732,1.756c-0.865,0.494-6.063,5.621-15.595,15.378
					L581.83,299.558z M529.25,302.126l-0.004-0.001v-0.001L529.25,302.126z M533.268,313.429c0.127-3.907,0.089-6.776-0.119-8.609
					c-0.248-1.385-1.447-2.269-3.599-2.644l0.031,0.001c27.327-19.923,43.045-31.383,47.155-34.378
					c1.109-0.809,2.251-0.879,3.367-0.494c0.798,3.038,1.437,5.951,1.911,8.734l-28.272,21.207
					c9.871-9.866,18.183-19.113,22.144-23.379c2.702-2.91,3.313-4.075,2.289-4.437c-0.968-0.647-2.095-0.243-3.38,1.213
					c-22.762,24.843-34.145,37.263-34.145,37.263L533.268,313.429z M533.517,327.257c0.539-2.408,0.679-4.499,0.414-6.276
					c-0.345-0.548-1.124-0.952-2.338-1.21c-0.481-0.245-0.798-0.523-0.949-0.834l49.701-37.464c1.066-0.082,1.89,0.107,2.471,0.565
					c0.214,2.315,0.304,4.531,0.28,6.656l-25.11,19.077c0.223,0.398,7.807-7.228,22.75-22.877c-0.348-0.778-1.36-0.721-3.034,0.173
					c-20.873,20.147-30.739,29.998-29.596,29.552L533.517,327.257z M595.373,244.879c0.89,1.13,1.077,1.83,0.563,2.101
					C594.775,246.03,594.586,245.33,595.373,244.879z M526.428,289.187c0.524,6.059,0.787,9.09,0.787,9.09s0.23,5.56,0.692,16.682
					c0,0-0.725,4.232-2.176,12.696c-0.282,1.877-0.423,2.817-0.423,2.817c3.303-0.105,5.811-0.329,7.525-0.676
					c0.868-0.098,1.568-0.333,2.099-0.708c26.982-20.971,40.472-31.457,40.472-31.457c-19.521,20.228-29.314,30.368-29.379,30.42
					c4.409-0.66,8.281-1.989,11.613-3.987c11.382-9.246,17.071-13.868,17.071-13.868c-1.023,3.673-5.615,8.149-13.78,13.432
					c-8.496,4.975-22.228,8.328-41.194,10.056c-9.198,0.29-18.75-0.101-28.177-0.901c-56.648-4.809-143.178-27.428-259.584-67.85
					c205.798,74.873,323.079,90.067,351.842,45.584c7.939-15.6,7.651-35.302-0.865-59.102c-0.004-0.775,0.835-1.135,2.515-1.08
					c-2.991-2.052-5.822-1.84-7.673,0.082c-2.184,2.274-1.098,5.874-0.2,8.533c0.487,1.447,0.932,2.86,1.349,4.253l-31.875,22.956
					c10.631-12.075,15.946-18.112,15.946-18.112c1.03-1.387,0.076-1.387-2.859,0c-13.346,15.253-20.017,22.877-20.017,22.877
					l-8.852,6.971l-0.3-5.773C529.494,290.669,527.976,289.689,526.428,289.187z"/>
			</defs>
			<clipPath id="SVGID_00000086677461840564802730000009879151870113543578_">
				<use xlink:href="#SVGID_00000098937646321365373990000010937979695759938710_"  style="overflow:visible;"/>
			</clipPath>
			
				<linearGradient id="SVGID_00000142860339971863409640000000259609974307623840_" gradientUnits="userSpaceOnUse" x1="838.8682" y1="-848.6567" x2="839.0392" y2="-848.6567" gradientTransform="matrix(100.2761 454.3275 1143.502 -252.3862 886734.5625 -595018.375)">
				<stop  offset="0" style="stop-color:#B3B3B3"/>
				<stop  offset="0.61" style="stop-color:#D9D9D9"/>
				<stop  offset="1" style="stop-color:#FFFFFF"/>
			</linearGradient>
			
				<polygon style="clip-path:url(#SVGID_00000086677461840564802730000009879151870113543578_);fill:url(#SVGID_00000142860339971863409640000000259609974307623840_);" points="
				208.798,249.994 248.905,431.708 619.626,349.885 579.52,168.171 			"/>
		</g>
	</g>
	<path class="st11" d="M516.392,215.257c3.267-5.232,24.325-19.907,36.957-29.494c-25.79,14.39-62.246,41.04-74.714,56.501
		c6.008,8.833,14.301,16.709,19.9,19.011c8.947-1.394,26.745-12.706,49.305-30.738c-9.906,6.362-15.769,8.079-19.367,8.351
		C522.414,229.695,517.678,220.752,516.392,215.257"/>
	<path class="st2" d="M581.396,258.665c11.831,27.21,5.293,54.13-12.793,62.364C585.358,309.439,589.446,291.315,581.396,258.665
		 M526.54,290.48c3.47,25.723,3.331,36.992,0.735,38.528C528.143,324.023,527.349,302.983,526.54,290.48z"/>
	<g>
		<g>
			<defs>
				<path id="SVGID_00000041262344845540135970000010825010551901026700_" d="M59.563,210.62c-2.301,6.696,1.843,9.708,7.242,11.655
					c113.393,40.867,187.319,65.178,258.066,85.985c152.613,44.384,239.102,48.372,259.463,11.96
					c-7.089,10.865-28.741,18.594-41.142,20.077C470.612,348.97,321.793,310.443,59.563,210.62"/>
			</defs>
			<clipPath id="SVGID_00000127722575415032992820000000982217272197862797_">
				<use xlink:href="#SVGID_00000041262344845540135970000010825010551901026700_"  style="overflow:visible;"/>
			</clipPath>
			
				<linearGradient id="SVGID_00000067957996770625720050000012368178879559982983_" gradientUnits="userSpaceOnUse" x1="838.1282" y1="-847.6995" x2="838.417" y2="-847.6995" gradientTransform="matrix(1146.3606 234.8969 120.0324 -585.7904 -858849.5625 -693189.8125)">
				<stop  offset="0" style="stop-color:#CCCCCC"/>
				<stop  offset="1" style="stop-color:#FFFFFF"/>
			</linearGradient>
			
				<polygon style="clip-path:url(#SVGID_00000127722575415032992820000000982217272197862797_);fill:url(#SVGID_00000067957996770625720050000012368178879559982983_);" points="
				28.549,350.749 563.096,460.281 613.048,216.503 78.501,106.971 			"/>
		</g>
	</g>
	<path class="st2" d="M366.169,287.897c35.603,4.88,87.142,3.251,125.933,1.406c-51.679-0.281-98.07-0.242-122.697-3.094
		c-16.307-2.778-12.93-7.984,10.131-15.618c3.627-0.87-32.557-0.518-102.645-1.759c-1.744,1.217,91.591,3.116,92.514,3.447
		C352.818,279.414,352.208,284.058,366.169,287.897"/>
	<path class="st2" d="M356.185,274.668c-8.822,5.334-5.586,10.634,9.709,15.9C347.08,285.102,343.844,279.802,356.185,274.668"/>
</g>
<rect x="710.585" y="180.361" class="st13" width="1796.746" height="311.738"/>
<text transform="matrix(1 0 0 1 710.5854 366.1607)" class="st14 st15 st16">THEME PARK</text>
</svg>
