<?xml version="1.0" encoding="utf-8"?>
<!-- Generator: Adobe Illustrator 26.2.1, SVG Export Plug-In . SVG Version: 6.00 Build 0)  -->
<svg version="1.1" id="Layer_1" xmlns="http://www.w3.org/2000/svg" xmlns:xlink="http://www.w3.org/1999/xlink" x="0px" y="0px"
	 viewBox="0 0 2657 553.8" style="enable-background:new 0 0 2657 553.8;" xml:space="preserve">
<style type="text/css">
	.st0{fill-rule:evenodd;clip-rule:evenodd;fill:#FFFFFF;}
	
		.st1{clip-path:url(#SVGID_00000044891674111190382270000006859111747053063296_);fill:url(#SVGID_00000030486643880420027970000006593351568272820669_);}
	.st2{fill-rule:evenodd;clip-rule:evenodd;fill:#01182B;}
	.st3{fill-rule:evenodd;clip-rule:evenodd;fill:#CCCCCC;}
	
		.st4{clip-path:url(#SVGID_00000022558811244904739010000015118123749852536488_);fill:url(#SVGID_00000182500400156206043800000010407250302163613608_);}
	.st5{fill-rule:evenodd;clip-rule:evenodd;fill:#EC6400;}
	.st6{fill-rule:evenodd;clip-rule:evenodd;fill:#EECF2B;}
	
		.st7{clip-path:url(#SVGID_00000000187656856805610390000011489342972329842868_);fill:url(#SVGID_00000053541285334864758310000002427987054831655595_);}
	.st8{fill-rule:evenodd;clip-rule:evenodd;fill:#F5A400;}
	.st9{fill-rule:evenodd;clip-rule:evenodd;fill:#808181;}
	
		.st10{clip-path:url(#SVGID_00000156580573822543213490000009710223789397335712_);fill:url(#SVGID_00000062166787577544359270000006645074827573202363_);}
	.st11{fill-rule:evenodd;clip-rule:evenodd;fill:#FDE186;}
	
		.st12{clip-path:url(#SVGID_00000163072192153357663360000001447166649916237702_);fill:url(#SVGID_00000054231249540735993530000003556059408305926842_);}
	.st13{fill:none;}
	.st14{enable-background:new    ;}
	.st15{fill:#F5A400;}
	.st16{font-family:'OpenSans-Bold';}
	.st17{font-size:244.4748px;}
	.st18{fill:#FFFFFF;}
</style>
<g>
	<path class="st0" d="M611.1,342.2c-89,140.1-454.4,140.1-543.4,0H611.1z M52.1,371.9V265.3V235C47.9,4.5,630.9,4.5,626.7,235v30.4
		V372L52.1,371.9L52.1,371.9z"/>
	<g>
		<g>
			<g>
				<g>
					<defs>
						<path id="SVGID_1_" d="M611.2,268.6v-24.9V243l0,0C614,20.5,67.6,20.5,70.4,243h-2.8v61.3v27.8v26h543.7v-26v-27.8
							L611.2,268.6L611.2,268.6z"/>
					</defs>
					<clipPath id="SVGID_00000056426940749973440650000012731838644898855556_">
						<use xlink:href="#SVGID_1_"  style="overflow:visible;"/>
					</clipPath>
					
						<linearGradient id="SVGID_00000175288715063677038430000016326377307606906019_" gradientUnits="userSpaceOnUse" x1="886.2007" y1="-3971.2808" x2="886.5965" y2="-3971.2808" gradientTransform="matrix(20.9919 724.322 1224.5922 -35.4905 4844935 -782718.8125)">
						<stop  offset="0" style="stop-color:#369CB7"/>
						<stop  offset="0.64" style="stop-color:#55B1D3"/>
						<stop  offset="1" style="stop-color:#70C8F1"/>
					</linearGradient>
					
						<polygon style="clip-path:url(#SVGID_00000056426940749973440650000012731838644898855556_);fill:url(#SVGID_00000175288715063677038430000016326377307606906019_);" points="
						57.8,20.8 68,373.9 623.8,357.7 613.6,4.7 					"/>
				</g>
			</g>
		</g>
	</g>
	<path class="st0" d="M433.4,306.5c-29.5,3.6-135.5,1.6-318-5.9C327.4,304.5,433.4,306.5,433.4,306.5 M385.1,313.7
		c-24.5,3-112.5,1.3-264-4.9C297.1,312.1,385.1,313.7,385.1,313.7z M482.2,299.8c-37.2,4.5-170.9,2-401.1-7.5
		C348.5,297.3,482.2,299.8,482.2,299.8z"/>
	<path class="st2" d="M274.7,179c-2-0.1-1.8-0.9,0.6-2.5c-1-0.6-0.9-1.2,0.2-1.9c1.2-0.2,1.5-0.9,1-2.1c-0.8-0.8-2-0.3-3.6,1.6
		c-1.1,0.5-1.8,0.3-2.2-0.4c-2.9-0.6-3.7-0.1-2.5,1.6c1.7,1.5,2.1,2.6,1.4,3.3c-2-0.2-2.9,0.4-2.5,1.7c3.5,1.3,5,2.6,4.4,4.1
		c-0.9,0.4-1.7,0.4-2.3,0c-3.2-0.1-3.3,1.1-0.4,3.4c2,1.3,3.3,0.8,4.2-1.5c0.2-0.8,1.1-1.2,2.6-1.2c0.9-0.8,0.6-1.4-1-1.8
		c-1.7-0.6-1.7-1.2,0.1-1.8C276.1,180.8,276.1,180,274.7,179 M401.3,208.1c3.2-0.1,2.9-1.2-1-3.3c1.6-0.8,1.4-1.6-0.4-2.5
		c-1.9-0.3-2.5-1.3-1.7-2.9c1.2-1.1,3.2-0.3,5.8,2.3c1.7,0.7,2.8,0.5,3.5-0.4c4.6-0.7,6,0,4.1,2.2c-2.7,1.9-3.4,3.4-2.3,4.3
		c3.3-0.1,4.7,0.6,4.1,2.3c-5.7,1.5-8,3.3-7.1,5.3c1.5,0.6,2.7,0.6,3.7,0.1c5.2,0,5.4,1.6,0.6,4.6c-3.1,1.6-5.4,0.9-6.8-2.2
		c-0.4-1.1-1.8-1.7-4.1-1.7c-1.4-1.1-0.9-1.9,1.6-2.4c2.8-0.8,2.7-1.6-0.1-2.4C399.1,210.4,399.1,209.4,401.3,208.1z M597.5,195.5
		c-1.6-0.1-1.5-0.9,0.5-2.2c-0.8-0.6-0.7-1.1,0.2-1.7c1-0.2,1.3-0.8,0.9-1.9c-0.6-0.8-1.6-0.3-2.9,1.5c-0.9,0.4-1.5,0.3-1.8-0.4
		c-2.4-0.6-3-0.1-2.1,1.5c1.4,1.4,1.7,2.3,1.2,2.9c-1.7-0.1-2.4,0.3-2.1,1.5c2.9,1.1,4.1,2.4,3.6,3.7c-0.7,0.4-1.4,0.4-1.9,0
		c-2.6-0.1-2.7,1-0.3,3.1c1.6,1.2,2.7,0.7,3.4-1.4c0.2-0.8,0.9-1.1,2.1-1.1c0.7-0.7,0.5-1.3-0.8-1.7c-1.4-0.6-1.4-1.1,0.1-1.6
		C598.6,197.1,598.6,196.4,597.5,195.5z M172.8,174.1c2-0.1,1.8-0.9-0.6-2.5c1-0.6,0.9-1.2-0.2-1.9c-1.2-0.2-1.5-0.9-1-2.1
		c0.8-0.8,2-0.3,3.6,1.6c1.1,0.5,1.8,0.3,2.2-0.4c2.9-0.6,3.7-0.1,2.5,1.6c-1.7,1.5-2.1,2.6-1.4,3.3c2-0.2,2.9,0.4,2.5,1.7
		c-3.5,1.3-5,2.6-4.4,4.1c0.9,0.4,1.7,0.4,2.3,0c3.2-0.1,3.3,1.1,0.4,3.4c-2,1.3-3.3,0.8-4.2-1.5c-0.2-0.8-1.1-1.2-2.6-1.2
		c-0.9-0.8-0.6-1.4,1-1.8c1.7-0.6,1.7-1.2-0.1-1.8C171.4,175.9,171.4,175.1,172.8,174.1z M219.9,162.2v-2.8c0.2,0,0.3,0.1,0.5,0.2
		L219.9,162.2z M227.5,166.4l-0.3-1.9c0.1-0.1,0.2-0.1,0.4-0.1L227.5,166.4z M485.5,194.8c1.3-0.1,1.2-0.8-0.4-2.1
		c0.6-0.5,0.6-1.1-0.2-1.6c-0.8-0.2-1-0.8-0.7-1.8c0.5-0.7,1.3-0.2,2.4,1.4c0.7,0.4,1.2,0.3,1.4-0.3c1.9-0.5,2.5-0.1,1.7,1.4
		c-1.1,1.3-1.4,2.2-0.9,2.8c1.4-0.1,1.9,0.3,1.7,1.4c-2.4,1.1-3.3,2.2-3,3.5c0.6,0.3,1.1,0.3,1.6,0c2.1-0.1,2.2,0.9,0.2,2.9
		c-1.3,1.1-2.2,0.6-2.8-1.3c-0.2-0.7-0.7-1-1.7-1c-0.6-0.7-0.4-1.2,0.7-1.6c1.1-0.5,1.1-1,0-1.5
		C484.6,196.3,484.6,195.6,485.5,194.8z M433.8,190.6l0.1-0.1c0.3-0.2,0.4-0.7,0.5-1.6C433.9,189.5,433.7,190,433.8,190.6z
		 M52.3,254.1h11.1V203c0.8,0.3,1.6,0.6,2.6,0.9c5.5,3.2,7.2,5.4,5.1,6.5c-4.8,0.4-6.8,1.1-6.2,2.3c0.1,1.4,2.2,2.8,6.1,4
		c0.6-3.1,1.2-6.2,2-9.3l10-0.9c5.5-3.9,7.3-8.3,5.5-13.1c-0.3-0.8,1.5-2.2,5.6-4.1c2-2.4,1.2-3.1-2.5-2.2c-1.4,0.8-2.7,1-3.9,0.8
		c-1.5-1.3-0.5-2.9,2.9-4.6c2.3-0.2,3.8-0.8,4.8-1.7c0.9-1.8-0.7-2.5-4.8-2c-0.6,0.4-1.1,0.3-1.5-0.3c-0.8-1.5,1.2-3.5,5.7-6.1
		c0.9-0.7,0.8-1.3-0.3-1.9c-1.4,0.2-1.1-0.5,0.8-2.2c0.8-0.4,1-2.4,0.8-6.1c1.3-1.9,2.3-0.4,3,4.7c1.1,0.1,1.8,0.9,2.2,2.2
		c0.6,1,1.5,1.7,2.8,2c0.8,1.2-0.1,1.7-2.6,1.5c-0.5,2,0.5,3.2,2.9,3.6c1,0.3,1.1,0.8,0.4,1.5c-1.8,0.2-1.9,0.9-0.4,2.2
		c1.5,0.5,2.9,1.5,4.2,3.2c1.5,1.7,0.8,2.2-2,1.5c-0.5-1-1.2-1.6-2.1-1.5c-1.8,2.4,0.3,3.8,6.1,4.2c1.9,0.8,1.9,1.8-0.1,2.9
		c-1.1,1.9,0.2,1.8,3.8-0.4c-0.2-2,2.4-3,7.7-3.2c3.8-1.7,4.7-3,2.7-3.8c-3.7,0.7-5.4,0.4-5.3-0.9c0.2-1.2-0.5-1.8-2-1.9
		c-0.6,0.8-1.5,1.1-2.8,0.7c-1.4-1.8,0.9-3.8,6.9-6.1c3.4-1.4,5.2-2.6,5.2-3.7c0-2-1.2-2.6-3.4-1.6c-0.4,1.3-1,1.7-1.7,1
		c-1.5-3.8,1-7.7,7.4-11.7c0.9-1.4,0.6-1.9-0.9-1.6c-0.6,0.9-1.2,1-2,0.5c-0.9-0.7,0-2,2.9-3.8c2.1-1.6,1.7-2-1.3-1.3
		c-0.7,0.6-1.6,1-2.5,1.1c-2.3-1.2-0.3-2.9,5.9-4.9c0.7-0.8,0.1-1.5-1.7-2c-0.5-0.3,0.2-1.1,2.1-2.3c1.3-1.3,1.7-3.8,1-7.5
		c0.1-1.9,0.7-2.5,2-1.7c-0.3,4.6,0.2,6.9,1.6,7c1.2-0.2,2.1,0,2.8,0.7c0.7,1.5-0.2,2.4-2.6,2.7c-0.9,0.7,0.6,1.9,4.4,3.7
		c2.4,1.7,2,2.7-1.3,3c-2.9,0.5-2.6,2.1,0.9,4.9c3.7,1,5.6,3,5.8,5.9c0.7,2.2-0.2,3.1-2.8,2.6c-0.9-1.5-2.1-2.1-3.8-2
		c-3.4,0.5-4.1,1.5-2,3.1c3.2-0.2,4.8,0.5,4.8,1.9c-0.1,0.7,0.5,1.1,2,1.1c2.4,0.3,3.8,1.9,4.2,4.6c0.7,2.1-0.9,2.4-4.8,0.8
		c-0.6-1.3-1.4-1.9-2.3-1.6c-3,1.4-2.1,3.3,2.7,5.7c2.3,0.7,4.2,1.8,5.8,3.1c0.7,1-0.1,1.9-2.4,2.7c-2.5,1.9-2.3,3.3,0.8,4.3
		c2.4,1.4,2.4,2.6-0.1,3.5c3.1,2.8,5.4,2.9,6.8,0.1c2.1-0.4,3.1-1.7,2.9-3.7c-0.7-1.5-2.1-1.5-4.1-0.1c-2.6,0.2-2.4-1,0.8-3.8
		c4.4-1.3,6.7-2.6,6.7-4.1c0.4-0.9-0.9-1.5-3.9-1.6c-1.3-0.8-0.2-2.5,3.2-5c4.4-1.8,5.3-2.7,2.9-2.8c-2.9,0.7-3.9-0.1-2.9-2.7
		c1.2-1.1,1.1-2.1-0.4-3c-0.3-1,1-2,4.1-3c-0.7-1.1-0.4-2.8,0.8-4.9c1.5-0.6,2.4-1.4,2.8-2.4c-0.1-3.6,0.1-5.6,0.8-6
		c2.5,0.3,3.4,2.8,2.5,7.3c-1.2,1-1.5,2.2-0.7,3.4c2-0.1,3.5,1.3,4.4,4.2c0.9,1.5,2,1.9,3.3,1c-0.6-1.4-0.1-2.9,1.6-4.5
		c2.1-0.2,3-0.7,2.8-1.8c-0.5-3.2-2.4-3.2-5.9-0.1c-0.1,0.7-0.6,1.2-1.4,1.3c-1.9-1.5-0.4-4,4.5-7.6c3-1.5,4.3-2.9,3.7-4.1
		c-1.1-2.8-2.6-2.8-4.6,0.2c0.1,1.1-0.2,1.8-1.1,2.1c-2.4-1.3-2.1-3.7,1.1-7.3c2.6-0.9,4.3-1.9,5-3c0.4-3-0.2-3.7-1.8-2.2
		c-0.7,1.9-1.6,2.3-2.8,1.3c-1-2.2,1.1-4.9,6.4-8.2c-0.5-3.5,0-6.6,1.6-9.4c1.3-1.1,1.9,1.9,1.8,9.1c1.1-0.3,1.6,0.2,1.6,1.5
		c3.1,0.5,5.3,1.4,6.4,2.7c0.3,1.8-0.4,2.7-1.9,2.7c-1.2-2.1-2.4-3.1-3.7-3.1c-2.4,1.5-2.4,2.3-0.2,2.5c4,1.3,5.7,2.9,5.2,4.9
		c-0.8,1.9-2,1.9-3.7,0c-1.2-1.8-2.1-2.3-2.9-1.3c-0.7,1.6,0.8,3.3,4.4,5.1c2.3,1,3.8,2.6,4.7,4.7c0.8,2.1,0,2.8-2.2,2.3
		c0.3-1.6-0.3-2.4-1.6-2.5c-1.6,2.1,0.1,5.3,5.3,9.7c0.7,1.3,0.3,2-1.4,2.2c-1.6-2.7-3.4-4.2-5.5-4.7c-1,1.5-0.6,2.7,1.3,3.5
		c2.2,0.9,3.7,2.3,4.3,4.2c0.3,1.8-0.3,2.2-1.8,1.2c-0.8-1.4-1.6-1.8-2.5-1.3c-0.9,1.9,0.8,4.2,5,6.9c2.3,0.3,3.2-0.3,2.8-1.6
		c-2.5-0.4-2.8-1-1.1-1.7c2.1-0.1,2.9-0.7,2.3-1.7c-3.2-0.5-3.8-1.3-1.8-2.6c1.1,0.1,1.4-0.3,1-1.3c-0.6-1.9-0.3-3.6,1-5.2
		c-0.1-2.4,0.4-4.2,1.5-5.5c1.7-1.4,2.5,0.3,2.6,5.1c0.1,2,1,3.1,2.7,3.5c2.1,0.5,2.3,1.2,0.7,2.3c-2,0.1-3.3,0.9-3.7,2.2
		c-0.2,1.6,0.8,1.6,2.7,0c1.8-1.6,2.8-1.9,3.2-1c-0.5,1-0.4,1.9,0.3,2.9c3.6,0.5,4.7-0.2,3.1-2.2c-2.4-0.3-2.5-1.2-0.4-2.8
		c1.4-0.3,2.4-0.7,3.1-1.1v-0.3v-3.1c-0.9-0.1-2.2,0.4-4,1.5c-0.4,2.8-5.3,0.2-1.9-5c2.2-1.9,2.6-3.4,1.1-4.3
		c-1.3-0.8-2.4-0.4-3.1,1c-1.4,1.4-2.3,1-2.6-1.3c-0.3-2.1,1.6-3.3,5.8-3.4c2.1-0.6,2.3-2.2,0.6-4.6c-1.3-0.6-2.1,0-2.3,1.6
		c-1.7,1.1-2.5,0.7-2.5-1.3c0-2.3,1.9-3.7,5.8-4.3c4.4-0.2,5.7-0.7,4-1.5c-3.4,0.4-4.1-0.2-2-1.6c2-0.1,2.6-0.7,1.8-1.7
		c-0.1-1.5-1.7-1.5-4.8,0.1c-0.4,1.1-1.1,1.4-2.2,1.1c-1-1.5,1-3.7,6-6.4c1.9-0.3,2-1,0.5-2.2c-1.6-0.7-3.6,0.1-5.8,2.5
		c-1.6-0.1-1.1-1.5,1.2-4.1c1.9-1.1,2.8-2.4,2.6-3.9c-1.7-1.3-0.7-2.5,2.8-3.4c0.9,0.1,1.6,0,2-0.2v-2.6c-0.3-1.5-0.3-3.1,0.1-4.8
		l0.1-6.2c0.1,0.1,0.2,0.2,0.4,0.3c0.2-2.3,0.5-3.9,0.9-4.9c0.1-0.1,0.3-0.2,0.4-0.3l0.2,16.8c0.2,1.1,0.2,2.2,0,3.2v3.4
		c0.4,0.1,1,0.2,1.9,0.1c3.6,0.9,4.5,2,2.8,3.4c-0.2,1.5,0.7,2.8,2.6,3.9c2.3,2.6,2.8,4,1.2,4.1c-2.2-2.4-4.2-3.2-5.8-2.5
		c-1.6,1.2-1.4,1.9,0.5,2.2c5,2.7,7,4.9,6,6.4c-1,0.3-1.8-0.1-2.2-1.1c-3.1-1.6-4.7-1.6-4.8-0.1c-0.8,1-0.2,1.6,1.8,1.7
		c2.1,1.4,1.5,2-2,1.6c-1.7,0.9-0.3,1.4,4,1.5c3.9,0.5,5.8,1.9,5.8,4.3c0,2-0.8,2.4-2.5,1.3c-0.2-1.7-1-2.2-2.3-1.6
		c-1.7,2.5-1.5,4,0.6,4.6c4.1,0.1,6.1,1.3,5.8,3.4c-0.4,2.2-1.2,2.7-2.6,1.3c-0.8-1.4-1.8-1.7-3.1-1c-1.5,1-1.1,2.4,1.1,4.3
		c3.4,5.2-1.4,7.8-1.9,5c-1.8-1.1-3.1-1.6-4-1.5v3.1v0.3c0.7,0.4,1.8,0.8,3.1,1.1c2.1,1.6,2,2.5-0.4,2.8c-1.5,2-0.5,2.8,3.1,2.2
		c0.7-0.9,0.8-1.9,0.3-2.9c0.4-0.9,1.5-0.6,3.2,1c1.9,1.6,2.9,1.6,2.7,0c-0.5-1.3-1.7-2.1-3.8-2.2c-1.6-1.1-1.4-1.9,0.7-2.3
		c1.7-0.4,2.6-1.6,2.7-3.5c0.1-4.8,1-6.5,2.6-5.1c1.1,1.2,1.6,3.1,1.5,5.5c1.3,1.6,1.6,3.3,1,5.2c-0.4,1-0.1,1.4,1,1.3
		c2,1.2,1.4,2.1-1.8,2.6c-0.5,1,0.2,1.6,2.3,1.7c1.7,0.7,1.3,1.3-1.1,1.7c-0.5,1.3,0.4,1.9,2.8,1.6c4.2-2.7,5.9-5.1,5-6.9
		c-0.9-0.5-1.8-0.1-2.5,1.3c-1.5,1-2.1,0.6-1.8-1.2c0.7-2,2.1-3.4,4.3-4.2c1.9-0.8,2.3-2,1.3-3.5c-2,0.4-3.9,2-5.5,4.7
		c-1.6-0.1-2.1-0.9-1.4-2.2c5.2-4.4,7-7.7,5.3-9.7c-1.4,0.1-1.9,0.9-1.6,2.5c-2.2,0.5-2.9-0.2-2.2-2.3c0.9-2.2,2.5-3.7,4.7-4.7
		c3.6-1.9,5.1-3.6,4.4-5.1c-0.8-1-1.7-0.5-2.9,1.3c-1.7,1.9-2.9,1.9-3.7,0c-0.5-2,1.3-3.7,5.2-4.9c2.3-0.2,2.2-1-0.2-2.5
		c-1.3,0-2.6,1-3.8,3.1c-1.6,0-2.2-0.8-1.9-2.7c1.1-1.2,3.3-2.1,6.4-2.7c0-1.3,0.5-1.8,1.6-1.5c-0.1-7.2,0.5-10.2,1.8-9
		c1.5,2.7,2,5.9,1.6,9.4c5.3,3.3,7.4,6,6.4,8.2c-1.2,1-2.1,0.6-2.8-1.3c-1.6-1.5-2.2-0.8-1.8,2.2c0.7,1.1,2.4,2,5,3
		c3.1,3.5,3.5,5.9,1,7.3c-0.9-0.3-1.3-1-1.1-2.1c-1.9-3-3.5-3.1-4.6-0.2c-0.6,1.2,0.6,2.6,3.7,4.1c4.9,3.6,6.4,6.1,4.5,7.6
		c-0.8-0.1-1.3-0.6-1.4-1.3c-3.4-3.1-5.4-3.1-5.9,0.1c-0.2,1,0.7,1.6,2.8,1.8c1.7,1.6,2.2,3.2,1.6,4.5c1.3,0.9,2.4,0.6,3.3-1
		c1-2.9,2.4-4.2,4.4-4.2c0.7-1.2,0.5-2.3-0.7-3.4c-0.8-4.6,0-7,2.5-7.3c0.6,0.4,0.9,2.4,0.8,6c0.4,0.9,1.3,1.7,2.8,2.4
		c1.3,2.2,1.5,3.8,0.8,4.9c3.1,1,4.4,2,4.1,3c-1.5,0.9-1.6,1.9-0.4,3c1,2.5,0,3.4-2.9,2.7c-2.4,0.1-1.4,1,2.9,2.8
		c3.4,2.5,4.5,4.1,3.2,5c-3,0.2-4.2,0.7-3.9,1.6c0.1,1.5,2.3,2.8,6.7,4.1c3.1,2.7,3.4,4,0.8,3.8c-2-1.5-3.4-1.4-4.1,0.1
		c-0.2,2,0.8,3.3,2.9,3.7c1.5,2.8,3.7,2.7,6.8-0.1c-2.6-0.9-2.6-2.1-0.1-3.5c3-1,3.3-2.5,0.8-4.3c-2.3-0.8-3.1-1.7-2.4-2.7
		c1.6-1.3,3.5-2.4,5.8-3.1c4.8-2.4,5.7-4.2,2.7-5.7c-1-0.3-1.7,0.3-2.3,1.6c-3.9,1.6-5.5,1.4-4.8-0.8c0.4-2.7,1.8-4.2,4.2-4.6
		c1.4-0.1,2.1-0.5,2-1.1c0-1.4,1.6-2.1,4.8-1.9c2.1-1.6,1.4-2.6-2-3.1c-1.7-0.2-2.9,0.5-3.8,2c-2.6,0.5-3.5-0.4-2.8-2.6
		c0.2-2.9,2.2-4.9,5.8-5.9c3.5-2.8,3.8-4.5,0.9-4.9c-3.3-0.3-3.8-1.3-1.4-3c3.9-1.8,5.3-3,4.4-3.7c-2.4-0.3-3.3-1.2-2.6-2.7
		c0.7-0.7,1.7-0.9,2.8-0.7c1.3-0.1,1.9-2.5,1.6-7.1c1.3-0.7,2-0.2,2,1.7c-0.6,3.7-0.3,6.2,1,7.5c1.9,1.2,2.6,2,2.1,2.3
		c-1.8,0.5-2.3,1.2-1.6,2c6.3,2.1,8.2,3.7,5.9,4.9c-0.9-0.1-1.7-0.4-2.5-1.1c-3-0.7-3.4-0.3-1.3,1.3c2.8,1.8,3.8,3.1,2.9,3.8
		c-0.7,0.5-1.4,0.4-2-0.5c-1.5-0.3-1.8,0.3-0.9,1.6c6.4,4,8.9,8,7.4,11.7c-0.7,0.7-1.3,0.3-1.7-1c-2.2-0.9-3.4-0.4-3.4,1.6
		c0,1.1,1.7,2.3,5.2,3.7c6,2.3,8.3,4.3,6.9,6.1c-1.3,0.4-2.2,0.1-2.8-0.7c-1.6,0-2.2,0.7-2,1.9c0.1,1.3-1.7,1.6-5.3,0.9
		c-2,0.8-1.1,2.1,2.7,3.8c5.3,0.1,7.9,1.2,7.7,3.2c3.6,2.2,4.8,2.3,3.8,0.4c-2-1.1-2.1-2.1-0.1-2.9c5.9-0.4,7.9-1.8,6.1-4.2
		c-0.9,0-1.6,0.5-2.1,1.5c-2.8,0.7-3.5,0.2-2-1.5c1.3-1.7,2.7-2.7,4.2-3.2c1.5-1.3,1.4-2.1-0.4-2.2c-0.7-0.6-0.6-1.1,0.4-1.5
		c2.5-0.4,3.4-1.6,2.9-3.6c-2.6,0.2-3.4-0.3-2.6-1.5c1.3-0.3,2.2-1,2.8-2c0.3-1.3,1.1-2.1,2.2-2.2c0.7-5,1.7-6.6,3-4.7
		c-0.2,3.7,0,5.7,0.8,6.1c1.9,1.7,2.2,2.5,0.8,2.2c-1.1,0.6-1.2,1.3-0.3,1.9c4.6,2.5,6.5,4.6,5.7,6.1c-0.4,0.6-1,0.7-1.5,0.3
		c-4.1-0.5-5.7,0.2-4.8,2c0.9,0.9,2.5,1.5,4.8,1.7c3.4,1.8,4.4,3.3,2.9,4.6c-1.2,0.2-2.5,0-3.9-0.8c-3.7-0.9-4.5-0.2-2.5,2.2
		c4.1,1.9,6,3.3,5.6,4.1c-1.8,4.8,0,9.2,5.5,13.1l10,0.9c0.8,3.1,1.4,6.2,2,9.3c3.9-1.2,6-2.5,6.1-4c0.6-1.2-1.5-2-6.2-2.3
		c-2.1-1.1-0.4-3.3,5.1-6.5c7-2.2,8.6-3.4,4.7-3.6c-4.7,0.9-6.2-0.4-4.7-3.7c2-1.4,1.8-2.7-0.6-4c-0.6-1.3,1.6-2.6,6.5-3.8
		c-1.1-1.5-0.7-3.7,1.3-6.5c2.4-0.8,3.9-1.8,4.5-3c-0.2-4.8,0.2-7.5,1.2-8c4.1,0.6,5.4,3.9,4.1,9.9c-2,1.3-2.4,2.8-1.2,4.5
		c3.2,0,5.6,1.9,7.1,5.7c1.4,2.1,3.2,2.6,5.3,1.4c-1-1.9-0.2-3.9,2.5-6c3.3-0.1,4.8-0.9,4.5-2.2c-0.8-4.3-3.9-4.4-9.4-0.4
		c-0.2,1-1,1.6-2.3,1.7c-3.1-2-0.6-5.4,7.2-9.9c4.9-1.9,6.9-3.7,5.9-5.4c-1.8-3.8-4.2-3.8-7.4,0.1c0.2,1.4-0.4,2.4-1.8,2.8
		c-3.9-1.9-3.3-5.1,1.7-9.7c4.2-1.1,6.9-2.4,8.1-3.8c0.7-4-0.3-5-2.9-3c-1.1,2.5-2.6,3-4.5,1.6c-1.6-2.9,1.8-6.5,10.2-10.6
		c-0.8-4.7,0.1-8.8,2.5-12.4c2.1-1.5,3.1,2.6,2.9,12.2c1.7-0.3,2.6,0.4,2.5,2.1c5.1,0.8,8.5,2.1,10.4,3.8c0.5,2.4-0.6,3.6-3.1,3.5
		c-1.9-2.8-3.9-4.3-6-4.3c-3.8,1.9-3.9,3-0.2,3.3c6.4,1.9,9.2,4.1,8.4,6.8c-1.2,2.5-3.2,2.5-5.9-0.1c-1.9-2.5-3.5-3.1-4.7-1.9
		c-1.1,2.1,1.3,4.4,7.1,7.1c3.6,1.4,6.1,3.6,7.6,6.5c1.2,2.8,0.1,3.8-3.5,3c0.4-2.1-0.5-3.3-2.6-3.4c-2.6,2.7,0.2,7.1,8.6,13.2
		c1.2,1.8,0.5,2.7-2.2,2.9c-2.1-3-4.5-5-7.1-5.9v0.2c0.7,0.1,1.2,0.7,1.5,1.9c0.4,0.9,1,1.4,1.8,1.7c0.5,0.9,0.1,1.3-1.1,1.3
		c2.5,1.2,4.2,2.9,5.1,5c0.5,2.4-0.4,2.9-2.9,1.5c-0.5-0.8-1.1-1.3-1.6-1.7c0,0.3,0.2,0.7,0.7,1.3c1,0.4,1.9,1.3,2.8,2.7
		c1,1.5,0.5,1.9-1.4,1.2c-0.3-0.9-0.8-1.3-1.4-1.3c-0.6,1-0.5,1.8,0.1,2.4l0.4,0.3c0.7,0.5,2,0.8,3.6,0.9c1,0.5,1.2,1.1,0.7,1.8h0.1
		c0.5,0.1,1,0.2,1.4,0.5l0.3-0.2c-0.1-1.7,1.6-2.6,5.1-2.7c2.5-1.5,3.2-2.6,1.8-3.3c-2.5,0.6-3.6,0.4-3.6-0.8c0.1-1-0.3-1.6-1.3-1.6
		c-0.4,0.7-1,0.9-1.9,0.6c-0.9-1.5,0.6-3.2,4.6-5.2c2.3-1.2,3.4-2.2,3.5-3.1c0-1.7-0.8-2.2-2.3-1.4c-0.3,1.1-0.7,1.4-1.1,0.8
		c-1-3.2,0.7-6.5,4.9-10c0.6-1.2,0.4-1.6-0.6-1.4c-0.4,0.7-0.8,0.9-1.3,0.4c-0.6-0.6,0-1.7,1.9-3.3c1.4-1.3,1.1-1.7-0.9-1.1
		c-0.5,0.6-1,0.9-1.7,0.9c-1.5-1-0.2-2.4,3.9-4.2c0.5-0.7,0.1-1.3-1.1-1.7c-0.3-0.3,0.1-1,1.4-2c0.9-1.1,1.1-3.2,0.7-6.4
		c0-1.6,0.5-2.1,1.4-1.5c-0.2,3.9,0.2,5.9,1.1,6c0.8-0.2,1.4,0,1.9,0.6c0.5,1.2-0.1,2-1.8,2.3c-0.6,0.6,0.4,1.7,2.9,3.2
		c1.6,1.4,1.3,2.3-0.9,2.5c-1.9,0.4-1.7,1.8,0.6,4.2c2.4,0.9,3.7,2.6,3.9,5c0.5,1.9-0.1,2.6-1.8,2.2c-0.6-1.2-1.4-1.8-2.5-1.7
		c-2.3,0.4-2.7,1.3-1.4,2.7c2.1-0.1,3.2,0.4,3.2,1.6c-0.1,0.6,0.4,0.9,1.3,1c1.6,0.3,2.5,1.6,2.8,3.9c0.4,1.8-0.6,2-3.2,0.6
		c-0.4-1.1-0.9-1.6-1.5-1.4c-2,1.2-1.4,2.8,1.8,4.8c1.5,0.6,2.8,1.5,3.9,2.6c0.5,0.9,0,1.6-1.6,2.3c-1.7,1.6-1.5,2.8,0.5,3.7
		c1.6,1.2,1.6,2.2-0.1,3c2.1,2.4,3.6,2.4,4.6,0.1c1.4-0.4,2.1-1.4,1.9-3.1c-0.5-1.3-1.4-1.3-2.7-0.1c-1.7,0.2-1.6-0.9,0.5-3.2
		c2.9-1.1,4.4-2.2,4.5-3.5c0.3-0.8-0.6-1.2-2.6-1.4c-0.9-0.7-0.2-2.1,2.1-4.2c2.9-1.5,3.5-2.3,2-2.3c-1.9,0.6-2.6-0.1-2-2.3
		c0.8-0.9,0.7-1.7-0.2-2.5c-0.2-0.8,0.7-1.7,2.7-2.5c-0.5-0.9-0.3-2.3,0.5-4.2c1-0.5,1.6-1.2,1.8-2c-0.1-3.1,0.1-4.8,0.5-5.1
		c1.7,0.3,2.2,2.4,1.7,6.2c-0.8,0.9-1,1.8-0.5,2.9c1.3-0.1,2.3,1.1,3,3.5c0.6,1.3,1.3,1.6,2.2,0.8c-0.4-1.2-0.1-2.5,1-3.9
		c1.4-0.1,2-0.6,1.8-1.5c-0.3-2.7-1.6-2.7-3.9-0.1c-0.1,0.6-0.4,1-0.9,1.1c-1.3-1.3-0.3-3.4,3-6.4c2-1.3,2.9-2.5,2.4-3.5
		c-0.7-2.4-1.8-2.4-3,0.2c0.1,0.9-0.2,1.5-0.8,1.8c-1.6-1.1-1.4-3.2,0.7-6.2c1.8-0.8,2.9-1.6,3.4-2.5c0.3-2.5-0.1-3.2-1.2-1.9
		c-0.4,1.6-1.1,2-1.8,1.1c-0.7-1.8,0.7-4.1,4.2-6.9c-0.3-3,0-5.6,1-7.9c0.9-1,1.3,1.6,1.2,7.7c0.7-0.2,1.1,0.2,1,1.3
		c2.1,0.5,3.5,1.2,4.3,2.3c0.2,1.5-0.2,2.3-1.3,2.3c-0.8-1.8-1.6-2.6-2.5-2.6c-1.6,1.3-1.6,2-0.1,2.1c2.6,1.1,3.8,2.5,3.5,4.2
		c-0.5,1.6-1.3,1.7-2.5,0c-0.8-1.6-1.4-1.9-1.9-1.1c-0.4,1.3,0.5,2.8,2.9,4.4c1.5,0.9,2.5,2.2,3.2,4c0.5,1.8,0,2.4-1.5,1.9
		c0.2-1.4-0.2-2.1-1.1-2.1c-1.1,1.8,0.1,4.5,3.6,8.3c0.5,1.1,0.2,1.7-0.9,1.9c-1.1-2.3-2.3-3.6-3.6-3.9c-0.7,1.3-0.4,2.3,0.9,3
		c1.5,0.7,2.4,1.9,2.9,3.6c0.2,1.5-0.2,1.9-1.2,1c-0.5-1.2-1.1-1.5-1.7-1.1c-0.6,1.6,0.5,3.6,3.3,5.9c1.6,0.2,2.2-0.2,1.9-1.4
		c-1.6-0.4-1.9-0.8-0.8-1.5c1.4-0.1,1.9-0.6,1.6-1.4c-2.1-0.4-2.5-1.1-1.2-2.2c0.7,0.1,0.9-0.3,0.7-1.1c-0.4-1.6-0.2-3.1,0.6-4.4
		c-0.1-2.1,0.3-3.6,1-4.6c1.1-1.2,1.7,0.3,1.8,4.3c0.1,1.7,0.7,2.7,1.8,3c1.4,0.4,1.5,1,0.5,2c-1.4,0.1-2.2,0.7-2.5,1.9
		c-0.1,1.4,0.5,1.4,1.8,0c1.2-1.3,1.9-1.6,2.1-0.8c-0.3,0.8-0.3,1.6,0.2,2.4c2.4,0.4,3.1-0.2,2.1-1.9c-1.6-0.2-1.7-1-0.3-2.4
		c0.9-0.3,1.6-0.6,2.1-1l0.4-2.7c-0.6-0.4-1.6-0.1-3,1.1c-0.3,2.4-3.5,0.1-1.2-4.3c1.5-1.6,1.7-2.8,0.7-3.7
		c-0.9-0.6-1.6-0.4-2.1,0.8c-0.9,1.2-1.5,0.8-1.7-1.1c-0.2-1.8,1.1-2.8,3.8-2.9c1.4-0.6,1.5-1.9,0.4-3.9c-0.9-0.5-1.4,0-1.5,1.4
		c-1.1,0.9-1.7,0.6-1.7-1.1c0-2,1.3-3.2,3.8-3.6c2.9-0.1,3.8-0.6,2.7-1.3c-2.3,0.3-2.7-0.1-1.3-1.4c1.3-0.1,1.7-0.6,1.2-1.5
		c0-1.3-1.1-1.3-3.2,0.1c-0.3,0.9-0.8,1.2-1.4,1c-0.7-1.3,0.7-3.1,4-5.4c1.2-0.2,1.3-0.9,0.3-1.9c-1.1-0.6-2.4,0.1-3.9,2.1
		c-1-0.1-0.8-1.2,0.8-3.4c1.3-0.9,1.8-2,1.7-3.3c-1.1-1.1-0.5-2.1,1.9-2.9c1.3,0.1,1.9-0.2,1.6-1.2c-0.5-1.9-0.5-3.9-0.1-6
		c0.1-4.3,0.3-7.1,0.8-8.4c1-1.3,1.5,0.9,1.4,6.5c-0.1,1.1,0.2,2,0.7,2.6c1.2,0.1,1.7,0.6,1.5,1.5c2.3,1,3.8,2.3,4.5,3.8v2.1
		c-0.4,0.1-1-0.3-1.9-1.1c-1.1-1.3-2.2-1.5-3.2-0.8c-1,1.3-0.5,2.3,1.6,3.2c2,1.3,2.3,2.3,0.9,3.1c-0.1,1,0.8,1.7,2.6,2.3v1.4
		c-1.7-0.4-2.2,0.4-1.6,2.4c0.7,0.6,1.2,1.2,1.6,1.7v2.8c-0.4,0.3-1,0-1.7-1.1c-0.5-1-1.3-1.4-2.2-1c-1.1,2,0,3.4,3.1,4.4
		c0.2-0.1,0.3-0.1,0.5-0.1l0.4-0.3l0.3,89H545l0.4-90.3l0.5,0.3c0.2,0,0.4,0.1,0.6,0.2c3.8-1.1,5-2.6,3.7-4.7
		c-1.2-0.4-2.1,0-2.8,1.1c-0.9,1.1-1.6,1.5-2.1,1.2v-3c0.4-0.6,1.1-1.2,2-1.8c0.8-2.1,0.1-2.9-2-2.5v-1.5c2.3-0.6,3.3-1.4,3.2-2.5
		c-1.7-0.8-1.3-1.9,1.2-3.3c2.5-0.9,3.1-2,1.9-3.4c-1.3-0.7-2.7-0.4-4,0.9c-1.1,0.9-1.8,1.3-2.3,1.2v-2.3c0.9-1.6,2.7-2.9,5.6-4.1
		c-0.3-1,0.3-1.5,1.8-1.6c0.7-0.6,1-1.6,0.9-2.8c0-0.8,0-1.6,0-2.3c0.9,0.4,1.7,0.9,2.6,1.3c0,0.9,0.1,1.9,0.1,3
		c0.6,2.3,0.6,4.4-0.1,6.4c-0.3,1,0.4,1.4,2,1.3c2.9,0.8,3.7,1.8,2.3,3.1c-0.1,1.4,0.6,2.5,2.1,3.5c1.9,2.4,2.3,3.6,1,3.7
		c-1.8-2.2-3.4-2.9-4.8-2.2c-1.3,1.1-1.2,1.8,0.4,2c4.1,2.5,5.7,4.4,4.9,5.8c-0.8,0.3-1.4-0.1-1.8-1c-2.6-1.4-3.9-1.5-3.9-0.1
		c-0.6,0.9-0.1,1.4,1.5,1.6c1.7,1.3,1.2,1.8-1.6,1.5c-1.4,0.8-0.3,1.2,3.3,1.4c3.2,0.5,4.8,1.8,4.7,3.9c0,1.8-0.7,2.2-2.1,1.2
		c-0.2-1.5-0.8-2-1.9-1.5c-1.4,2.2-1.2,3.6,0.5,4.2c3.4,0.1,5,1.2,4.7,3.1c-0.3,2-1,2.4-2.1,1.1c-0.6-1.3-1.5-1.6-2.6-0.9
		c-1.2,0.9-0.9,2.2,0.9,3.9c2.8,4.7-1.2,7.1-1.5,4.6c-1.7-1.2-3-1.6-3.7-1.2l0.5,2.9c0.6,0.4,1.5,0.7,2.6,1c1.8,1.5,1.7,2.3-0.3,2.5
		c-1.3,1.8-0.4,2.5,2.6,2c0.6-0.9,0.7-1.7,0.2-2.6c0.3-0.8,1.2-0.5,2.6,0.9c1.6,1.4,2.3,1.4,2.2,0c-0.4-1.2-1.4-1.9-3.1-2
		c-1.3-1-1.1-1.7,0.6-2.1c1.4-0.4,2.1-1.4,2.2-3.2c0.1-4.3,0.8-5.8,2.2-4.6c0.9,1.1,1.3,2.8,1.2,5c1,1.4,1.3,3,0.8,4.7
		c-0.4,0.9-0.1,1.3,0.8,1.2c1.6,1.1,1.1,1.9-1.5,2.3c-0.4,0.9,0.2,1.4,1.9,1.5c1.4,0.6,1.1,1.2-0.9,1.6c-0.4,1.2,0.4,1.7,2.3,1.5
		c3.5-2.5,4.8-4.6,4.1-6.3c-0.8-0.5-1.4-0.1-2.1,1.1c-1.3,0.9-1.7,0.6-1.5-1.1c0.6-1.8,1.7-3.1,3.6-3.8c1.5-0.8,1.9-1.8,1-3.2
		c-1.7,0.4-3.2,1.8-4.5,4.2c-1.3-0.1-1.7-0.8-1.1-2c4.2-4,5.7-7,4.4-8.8c-1.1,0.1-1.6,0.8-1.4,2.3c-1.8,0.5-2.4-0.2-1.8-2.1
		c0.7-2,2-3.4,3.9-4.3c3-1.7,4.2-3.3,3.6-4.7c-0.6-0.9-1.4-0.5-2.4,1.2c-1.4,1.7-2.4,1.7-3,0c-0.4-1.8,1.1-3.3,4.3-4.5
		c1.9-0.1,1.8-0.9-0.1-2.3c-1.1,0-2.1,0.9-3.1,2.8c-1.3,0-1.8-0.8-1.6-2.4c0.9-1.1,2.7-1.9,5.3-2.4c0-1.2,0.4-1.6,1.3-1.4
		c0-2.9,0-5,0.2-6.4c0.8,0.6,1.6,1.1,2.4,1.7c0.3,1.6,0.3,3.2,0.1,5c4.3,3,6.1,5.4,5.2,7.4c-1,0.9-1.7,0.5-2.3-1.2
		c-1.3-1.4-1.8-0.7-1.5,2c0.6,1,2,1.8,4.1,2.7c2.5,3.2,2.8,5.4,0.9,6.6c-0.7-0.3-1-0.9-0.9-1.9c-1.6-2.7-2.8-2.8-3.7-0.2
		c-0.5,1.1,0.5,2.3,3,3.7c4,3.2,5.2,5.5,3.7,6.9c-0.7-0.1-1.1-0.5-1.2-1.2c-2.8-2.8-4.4-2.8-4.8,0.1c-0.2,0.9,0.6,1.4,2.3,1.6
		c1.4,1.5,1.8,2.9,1.3,4.1c1.1,0.8,2,0.5,2.7-0.9c0.8-2.6,2-3.8,3.6-3.8c0.6-1.1,0.4-2.1-0.6-3.1c-0.7-4.1,0-6.4,2.1-6.7
		c0.5,0.4,0.7,2.2,0.6,5.5c0.3,0.8,1.1,1.6,2.3,2.1c1,2,1.3,3.4,0.7,4.5c2.5,0.9,3.6,1.8,3.3,2.7c-1.2,0.9-1.3,1.8-0.3,2.7
		c0.8,2.3,0,3.1-2.4,2.4c-2,0.1-1.2,0.9,2.4,2.5c2.8,2.3,3.7,3.8,2.6,4.5c-2.4,0.1-3.5,0.6-3.2,1.5c0.1,1.3,1.9,2.6,5.5,3.7
		c0.8,0.7,1.3,1.3,1.7,1.8v1.5c-0.2,0.1-0.6,0.1-1,0c-1.7-1.3-2.8-1.3-3.3,0.1c-0.2,1.9,0.6,3,2.4,3.4c0.5,1.1,1.2,1.7,2,1.8v39.5
		h12.6v32.7h-18.5c-138.5-0.7-228.1-1.2-236.9-2.9c-36-7.2,74.9-15.3,22.2-16.2c-121.2-2-295.6-6.9-334.5-6.3
		c-2.3,0.5-4.5,1.1-6.8,1.6L52.3,254.1L52.3,254.1L52.3,254.1z M63.4,189.7c2.6,0.9,3.6,1.9,3.2,2.9c-2.4,1.3-2.6,2.7-0.6,4
		c1.3,2.8,0.4,4.1-2.6,3.9V189.7L63.4,189.7z"/>
	<path class="st0" d="M32.7,360.9V244.2v-13.1v-0.2c-1.5-87.1,73.2-144.2,170.6-170.8c42.4-11.6,89.2-17.4,136.1-17.4
		s93.6,5.8,136.1,17.4c97.4,26.6,172.1,83.7,170.6,170.8v0.2v13.1v116.7h18V244.2v-13.1l0,0c1.6-98.2-79-161.6-184.3-190.3
		c-44-12-92.2-18-140.3-18s-96.3,6-140.3,18c-105.4,28.7-186,92-184.4,190.3l0,0v13.1v116.7L32.7,360.9L32.7,360.9z"/>
	<path class="st0" d="M55.6,361.2c62.7,173.1,504.9,173.1,567.6,0H645c-18.8,65.3-85.2,109.4-167.6,131.9
		c-43,11.7-90.4,17.6-137.9,17.6s-94.9-5.9-137.9-17.6c-82.6-22.5-149-66.6-167.8-131.9H55.6z M14.8,361.2
		c18.4,76.2,91.3,126.7,182.4,151.6c44.6,12.2,93.4,18.3,142.2,18.3s97.7-6.1,142.2-18.3c91.1-24.9,164-75.3,182.4-151.6"/>
	<path class="st3" d="M516.8,343.4c1-0.1,2.1-0.2,3.2-0.4c1.5-7.6,1.3-19.8-0.4-36.8c-2-1.2-3.1-1.5-4-0.2
		C517.4,321.9,517.7,334.3,516.8,343.4"/>
	<path class="st0" d="M243.5,356l-3.8-5.8l-0.4,10.2L243.5,356z M119.4,316.4l0.7-14.7l-22.6,23L119.4,316.4z M401,339.5
		c-3.9-0.8-8-1.7-12.3-2.7l-1.3,2.1l5,9.4l12.8-7.9C403.8,340.1,402.4,339.8,401,339.5z M342.7,325.6c-6.3-1.6-12.8-3.4-19.6-5.2
		l-3.4,3.2l2.6,16.1l28.8-11.9C348.4,327,345.5,326.3,342.7,325.6z M267.8,304.5c-8.1-2.4-16.3-5-24.8-7.6l-0.8,16l7.6,10.9
		l34.9-14.3C279.2,307.9,273.5,306.2,267.8,304.5z M183.6,277.7c-10.8-3.6-21.1-7.1-31-10.4l-3.4,2.5l-0.8,35.6l55.4-21
		C197.3,282.3,190.5,280.1,183.6,277.7z M577.4,221.1L577.4,221.1L577.4,221.1C577.5,221.1,577.4,221,577.4,221.1z M428.6,56.8
		c2.5,1.6,5,3.2,7.6,4.8l0.1,0.1c2.3,1.5,2.7,1.3,4,0.6c0.5-0.3,1.1-0.6,1.8-1l15.2-7.7h0.1c2.7-1.3,5-2.2,7.2-2.4
		c2.9-0.2,5.4,0.6,7.8,3.1l0.2,0.2l20.1,24.1c0.9-0.4,1.8-0.7,2.6-0.8c2.9-0.5,5.1,0.3,6.7,2.4l0,0l21.9,28.6c1.1-0.1,2.1,0,3.2,0.4
		c2,0.7,3.6,2.1,5,4.2l0,0l20.7,29.8c1,0.1,1.9,0.4,2.8,0.9l0.6,0.3l0.5,0.6l2.9,3.3l0.3,0.4l0.2,0.4l23.4,41.6l0.1,0.2l0.1,0.3
		c1.6,4.2,2,8.5,1.1,12.9c-0.8,4.1-2.7,8.4-5.7,12.7c-0.9,1.8-1.4,3.3-1.5,4.3c0,0.1-0.2,0-0.3,0h-0.1c0.7,0.5,1.4,0.8,2,0.7
		c1.1-0.2,2.5-0.9,4.2-2.4l0.5-0.4l0.6-0.3c1.8-0.8,3.5-1.2,5-1.3c2.1-0.1,3.9,0.5,5.3,1.7l0.3,0.3l0.2,0.3l3,3.9
		c1.3,1.3,1.9,2.8,1.8,4.6l0.4,0.5l2.2,2.7c1.3,1.4,2.1,2.9,2.3,4.6c0.3,1.8,0,3.6-1,5.3l-0.4,0.7l-0.5,0.5
		c-0.8,0.7-1.4,1.3-1.9,1.8c0.2,0.6,0.4,1.2,0.5,1.8c0.3,2-0.3,3.7-1.7,5.1c-1.6,1.6-3.4,2.2-5.5,1.8c0.3,0.7,0.8,1.5,1.5,2.5
		l0.1,0.2l0.1,0.2c1,1.7,1.7,3.3,1.9,4.8c0.3,2.1-0.2,4-1.6,5.5l-0.4,0.5l-0.5,0.3c2,7.7,3.1,14.9,3.5,21.6c0.4,7.2-0.1,13.9-1.6,20
		l5.1,14.4l24.9,35.4l-23.9-11.7l4.3,23.7H301.6l-3-24.4l-22.2,24.1l-0.3,0.3h-79.9v-12.8l-8.1,12.8h-27.3l36.8-55.7l2.2-6.2
		l-5.2,1.7l0,0L148,327.4l-1,42.6h-30l1.4-31.4l-54.9,20.8l-13.3,1.5l0.2-24.4l45.9-56.4l-19.2,4.6l3.5-12.6l36-17.1l-47.5-21.4
		c0,0-19.4-9.1-0.9-30.3c146.6,49.4,279.5,91.3,279.5,91.3h-0.2c5.1,1.5,10.1,2.9,15,4.3c74.9,21.2,124.3,29.6,155.4,27.8
		c0.2-2.8,0.3-6.1,0.2-9.6c0-3-0.1-6.2-0.3-9.6c-1,0.5-2,0.8-2.9,1.1c-3.6,1.1-6.8,1.1-9-0.2l-0.5-0.3l-0.4-0.4l-3-3l-0.3-0.3
		l-0.2-0.3c-1.6-2.2-2.4-4.5-2.3-6.9c0-1.5,0.4-2.9,1-4.3l-1.4-2.8l0,0c-1.3-2.4-1.5-4.8-0.6-7.2c0.5-1.5,1.5-2.8,2.8-4.1
		c0.1-0.4,0.2-0.7,0.3-1.1l0.1-0.2c-2.1,0.5-4.4,0.7-6.8,0.8c-3.5,0.1-7.2-0.2-11.3-1l-0.5-0.1l-0.3-0.1c-2.9-1.1-5.6-3.4-8.1-6.8
		c-2.2-3-4.2-6.9-6.2-11.8l-0.1-0.2L452.2,213l-0.1-0.3c-0.5-1.8-0.5-3.4,0-4.8c0.4-1.1,1-2,1.8-2.7l-19.7-35.1l-0.2-0.4l-0.1-0.5
		c-0.4-1.5-0.4-3,0.1-4.5c0.1-0.2,0.2-0.5,0.3-0.7l-20-29.6c-0.8-1-1.3-2-1.6-3.3c-0.2-1-0.2-2-0.1-3l-22.2-26.7l-0.7-0.8l-0.2-1
		c-0.4-1.8-0.5-3.2-0.4-4.5c0.1-1.7,0.6-3.1,1.5-4.2c-14.8-8.7-30.9-13.8-48.5-15.5c-18.8-1.8-39.2,0.4-61.3,6.5
		c-16.6,20-29.9,46.5-37.2,80.7l-28.3-1.1c1.4-9.4,3.1-24.9,6-38.7c3.7-23.3,10.4-42.1,20.2-56.4c10-14.7,23.1-24.6,39.4-29.6
		l0.3-0.1c5.4-1.3,11.3-2,17.6-2.3c6.1-0.2,12.7,0,19.6,0.7l16.3-1.2c9.4-2.1,18.8-2.9,28.3-2.3c9.6,0.6,19.2,2.6,28.9,6
		C404.8,41.9,417,49.6,428.6,56.8z"/>
	<path class="st2" d="M434,65.2c-13.5-8.3-28.2-18.5-43.3-23.8c-18.6-6.5-37-7.7-55.2-3.5c0,0-5.7,0.4-17,1.2
		c-13.8-1.5-25.9-1-36.2,1.4c-30.6,9.6-49.5,37.3-56.7,83.1c-3.4,9.4-8.3,28.4-10.9,41.8c2.9-1,5.5,1.3,8.2,3.5
		c3.2,3.1,8.9,7.6,11.8,9.2c0,0,2.4-2.4,8.3-8.7c1.7-15.1,6.4-37.8,10.4-48.3c6.1-16.2,14.4-30.6,25.1-43.2
		c46.1-13.1,85.4-9.3,117.9,11.3c0.9,0.7,1.2,1.3,0.8,1.7c-2.1,1.6-3.1,2.3-3.1,2.3c-0.8,0.8-0.9,2.6-0.3,5.3c15,18,22.4,27,22.4,27
		c0.9,1.5,1.2,2.3,0.8,2.5c-0.3,1.5,0,2.7,0.8,3.6c14.4,21.4,21.7,32.1,21.7,32.1c-1.3,1.5-1.8,2.9-1.4,4.2
		c14.4,25.8,21.7,38.6,21.7,38.6c-1.4,0.8-2.2,1.2-2.2,1.2c-1.4,0.7-1.8,1.9-1.3,3.7c10.6,30.3,15.9,45.4,15.9,45.4
		c3.6,9,7.5,14.4,11.9,16.1c7.6,1.4,13.9,1.2,19-0.5c1.5,1,2.8,2.4,3.6,4.4c-1.2,1.4-1.6,2.6-1.2,3.6c-3.2,2.3-4.1,4.8-2.7,7.5
		c1.7,3.3,2.5,4.9,2.5,4.9c-2.2,2.7-2.2,5.5-0.1,8.5c2,2,3,3,3,3c2.3,1.3,7.6-0.1,13.5-4.3c1.1,12,1.1,23.4,0.3,30.3
		c-61,5.2-195-30.6-462.3-130.6c-2.7,7.7-4.2,17.2-4.6,28.4c255.3,93,418.3,132.5,488.7,118.4c45.1-9.8,59.6-37,47.1-82.2
		c1.7-1.1,2.6-1.6,2.6-1.6c1-1.2,0.8-2.9-0.7-5.3c-3.4-4.6-3.6-8.3-0.4-11.2c2.1,2.1,3.7,2.5,4.9,1.4c0.8-0.7,0.7-2-0.5-3.8
		c-0.4-0.8,0.9-2.4,3.9-5c1-1.8,0.7-3.5-0.9-5.1c-1.5-1.8-2.3-2.7-2.3-2.7c-1.1-0.6-2-0.9-2.7-0.7c1.5-1.9,1.7-3.3,0.6-4.2
		c-2.1-2.7-3.2-4.1-3.2-4.1c-1.2-1-3.1-0.9-5.8,0.3c-4.5,4-8.5,4.5-11.9,1.6c-1.7-1.6-1.3-4.7,1-9.5c5.5-7.9,7-15.2,4.3-22
		c-15.6-27.7-23.4-41.6-23.4-41.6c-2-2.2-2.9-3.3-2.9-3.3c-1-0.5-1.9-0.6-2.8-0.1c-14.8-21.3-22.2-31.9-22.2-31.9
		c-1.7-2.8-3.7-3.5-6.2-2.1c-15.8-20.6-23.8-30.9-23.8-30.9c-1.1-1.5-3.4-1.1-6.9,1.3c-14.9-17.9-22.4-26.9-22.4-26.9
		c-2.7-2.8-5.5-2-10.1,0.2l-15.1,8C439.4,67.4,439.1,68.6,434,65.2"/>
	<g>
		<g>
			<g>
				<g>
					<defs>
						<path id="SVGID_00000119083482593739823030000012360761120937184672_" d="M244.3,80.7c0.6-1.5,0.8-1.1,0.5,1.2
							c-0.4,2.7-1.7,7.6-3.9,14.6c-0.7,1.3-1.2,0.5-1.4-2.3c-1.3,4.4-2.4,7-3.3,7.8c2.3-7.9,3.4-11.8,3.4-11.8
							c0.5-1.4,0.9,0.2,1.1,4.9C243.1,85.5,244.3,80.7,244.3,80.7 M288.5,66.6c0.1,1.2-0.5,1.8-1.8,1.7c0,0-3-4.8-8.9-14.3
							c1.9,14.9,2.2,20.6,0.9,17.1c0,0-0.7-5.4-2.1-16.1c0,0-1.6,6.2-4.9,18.5c-0.1,0.2-2.7,2.9-3.6,0.8c-0.7-1.7-2.5-5.6-5.4-11.8
							c0,14-0.3,19.3-1.1,15.8c0,0.8-0.1-3.6-0.2-13.2c0,0-2.3,6-6.9,17.9c-0.3,1.4-1,2.1-1.9,2c0.1,0-0.7-2.5-2.2-7.3
							c-0.4-1.4-0.7-1.6-1.1-0.8c-0.6,7.3-1.3,11.5-2.1,12.7c0-1.7,0.4-4.8,1.1-9.5c-2.6,7.8-4.5,12.4-5.6,13.9c0,0,2.3-6.6,7-19.8
							c0.4-0.8,0.9-0.6,1.4,0.4c1.4,5.3,2,8,2,8c1.6-12.7,2.4-19,2.4-19c-0.7,11.1-1.1,16.7-1,16.7c5.1-13.2,7.6-19.8,7.6-19.8
							c-0.1-2.3,0.6-1.9,2,1.2c2.9,7.3,4.3,11,4.3,11c0.4-12,0.6-18.1,0.6-18.1c0.3-1.9,0.8-1.7,1.3,0.5
							c-0.2,11.8-0.3,17.7-0.3,17.7c1.4-0.9,3.5-8.3,6.2-22.4c6.7,10.1,10.1,15.2,10.1,15.2c-1.5-12.2-2.3-18.3-2.3-18.3
							C283.6,43.2,284.9,50.2,288.5,66.6z M303,48.1c2.8,9.2,4.5,15,5.1,17.3c-1.5,0.3-6.2-5-14.1-16.1c5,14.1,6.3,19.5,4.1,15.9
							c0,0-1.7-5-5-15.1c-1.3,14.3-2.2,19.7-2.5,16.2c0,0,0.4-6.3,1.1-18.9c0.9-2.4,2.2-2.2,4,0.5c7,9.7,10.5,14.6,10.5,14.6
							C304.1,53,303,48.1,303,48.1z M321.4,47.8C325.8,57.2,328,62,328,62c0.7,1.8,0.4,2.6-0.9,2.6c0,0-5-5.1-14.9-15.2
							c-0.2,13.6-0.5,18.6-1,14.8c0,0-0.1-5.6-0.3-16.8c0.7-1.7,1.8-1.5,3.4,0.8c8.4,9.6,12.6,14.4,12.6,14.4
							C323.2,52.7,321.4,47.8,321.4,47.8z M330.4,49.1c-1.7-2.5-1.3,2.4,1.2,14.8C332.3,64.2,331.9,59.2,330.4,49.1z M347.3,64.7
							c0.8,1.3,0.4,1.4-1.4,0.4c-10.9-12-13.5-15.6-7.8-10.8C344.2,61.2,347.3,64.7,347.3,64.7z M351.5,66.7c0,0-1.7-3.7-5.1-11.1
							C343.5,52.9,345.7,57,351.5,66.7z M355.9,59.8c5.7,6.7,8.5,10.1,8.5,10.1C362.7,70.7,359.9,67.3,355.9,59.8z M241.3,142.7
							c-11.8,8.7-17.8,13-17.8,13s5.4-1,16.3-3.1c4.4-0.1-1.1,1.4-16.6,4.5c-2.5-0.9-2.4-2.1,0.1-3.6c7.8-5.9,11.7-8.8,11.9-8.6
							c-7.6,0.9-11.4,1.4-11.4,1.4c-4.7,0,0.1-1,14.3-3c-8.3-2.5-12.4-3.8-12.4-3.8C221.1,137.5,226.3,138.6,241.3,142.7z
							 M226.8,133.7c-4.5,4.5,0.6,1.1,15.3-10.1C240.8,123.4,235.7,126.8,226.8,133.7z M225.8,136.5c1.3-1.9,7.4-3.5,18.3-4.7
							C231.9,134.9,225.8,136.5,225.8,136.5z M246.5,99.1c10.8-7.7,15.1-10.1,12.8-7.1C250.7,96.7,246.5,99.1,246.5,99.1z
							 M236.4,113.9c12.5-10.2,17.8-13.6,15.9-10.1C241.7,110.5,236.4,113.9,236.4,113.9z M236.9,119.3c10.5,1.5,14.9,1.9,10.4,1.9
							c-8-0.4-12.4-1-13.3-1.6c0,0,5.3-2.5,15.9-7.5C242.2,116.6,236.9,119.3,236.9,119.3z M263.5,89
							c-10.6,17.3-17.5,38.8-20.4,64.5c3.9-27.1,13-50.5,27.2-70.4C267.8,84.5,265.6,86.4,263.5,89z M362.5,72
							c-23.7-5.7-51.2-6-74.9,0.1c-26.1,6.8-46.4,21.6-59.6,49.1c9.7-26.2,29.3-43.2,58.9-51.4C309.1,63.5,340.9,64.7,362.5,72z
							 M344.9,39c-0.7-0.3-1.8-0.4-3.2-0.3c-1.6,1.3-6.1,2.3-13.4,2.9c-1.2,0.4-0.8,0.5,1.3,0.4c7.4-0.7,12.4-1.7,15-3 M344.9,39
							c-0.7-0.3-1.8-0.4-3.2-0.3c-1.6,1.3-6.1,2.3-13.4,2.9c-1.2,0.4-0.8,0.5,1.3,0.4c7.4-0.7,12.4-1.7,15-3"/>
					</defs>
					<clipPath id="SVGID_00000165202610792042045410000006958279810089233302_">
						<use xlink:href="#SVGID_00000119083482593739823030000012360761120937184672_"  style="overflow:visible;"/>
					</clipPath>
					
						<linearGradient id="SVGID_00000015354889653490995340000012883774224082612884_" gradientUnits="userSpaceOnUse" x1="870.2592" y1="-3964.3933" x2="870.4944" y2="-3964.3933" gradientTransform="matrix(-13.545 -322.7306 -317.4259 13.3224 -1246321.25 333786.2188)">
						<stop  offset="0" style="stop-color:#B3B3B3"/>
						<stop  offset="1" style="stop-color:#FFFFFF"/>
					</linearGradient>
					
						<polygon style="clip-path:url(#SVGID_00000165202610792042045410000006958279810089233302_);fill:url(#SVGID_00000015354889653490995340000012883774224082612884_);" points="
						369.4,156.9 364.2,32.5 214,38.8 219.3,163.2 					"/>
				</g>
			</g>
		</g>
	</g>
	<path class="st5" d="M509.5,267.6c23.2-12,40.9-25,53.2-39C548.3,241.2,530.5,254.2,509.5,267.6 M576.7,193.3
		c0,11-3.1,20.3-9.4,28.1c4-10,5.6-19.2,4.9-27.6c0,0-0.6,0.3-1.8,0.8c0,0-1.5-0.5-4.4-1.5c4-2.5,6.1-3.8,6.1-3.8
		C572.7,189.2,574.3,190.5,576.7,193.3z M479.1,261.3c4.6,5.2,11.5,8.5,20.7,10c-11.1,0.3-18.1-1.7-21.1-6.2
		c-0.8-1.1-1.6-2.6-2.4-4.4c0,0,0.6-0.6,1.9-1.7c0,0,0-1.2,0.1-3.6c1.7,2.4,3.3,4.6,5,6.4C480.5,261.4,479.1,261.3,479.1,261.3z"/>
	<path class="st6" d="M518.2,285.6c0.9,0.5,2.2-0.3,4.1-2.4c0.7-0.6,0.8-1.4,0.3-2.3c-3.1-2.7-6.4-6.3-9.6-10.7
		c-2,0.8-3.1,1.8-3.5,2.9c4,5.1,6,7.7,6,7.7c-1.9-1-4-3.3-6.5-6.9c-0.5,0.3-0.7,0.6-0.6,0.9C510.8,278.6,514,282.3,518.2,285.6
		 M578.3,241.6c0.3,0.5,0.8,1.2-0.1,1.9c0,0-0.8,0.6-2.5,1.9c-0.6,0.6-1.2,0.7-1.7,0.5c-3.7-1.9-7.5-6.1-11.4-12.6
		c1.5-1.7,2.6-2.3,3.3-1.8c2.7,3.8,5,6.5,6.9,8c-2.6-3.2-4.6-6.2-6-8.9c0.7-0.8,1.2-1.3,1.9-0.5C572.1,235,575.1,238.6,578.3,241.6z
		 M597.6,237.9c-0.2,1-0.3,1.5-0.3,1.5c1.2-1,1.7-1.9,1.5-2.9c-1.5-2.6-3-3.4-4.7-2.3c0.8,1.8-2,4.4-8.2,7.9
		c2.6,0.2,6.1-1.8,10.3-5.8C596.9,236.8,597.4,237.3,597.6,237.9z M510.7,301.6c0.4,0.4,1.3,0.5,2.7,0.4c-1.7,0.8-3,1-3.9,0.5
		c0,0-0.8-0.9-2.4-2.6c-1.8-1.5-1.9-3.1-0.1-4.8c-0.5,1.9,0.4,2.4,2.5,1.4c1.6-0.6,4.1-2,7.4-4.2c4.6-0.4-5.9,6.3-8.1,7
		C510,300.9,510.7,301.6,510.7,301.6z"/>
	<g>
		<g>
			<g>
				<g>
					<defs>
						<path id="SVGID_00000015329016451438642520000013317626354098334855_" d="M382.3,44.4c1.4-0.1,1.9,0.1,1.4,0.6
							c0.3,0.2-7.4,3.4-23.1,9.4c-1.1,0-1.5-0.3-1.1-1c1.5-0.5,3.1-1.3,4.9-2.4c0,0,3.7-2.8,11-8.3c1-0.4,1.2-0.2,0.7,0.6
							c-4.8,4-7.7,6.3-8.6,6.9c-0.2,0.1-0.4,0.2-0.4,0.2l0.4-0.2C377.9,46,382.8,44.1,382.3,44.4 M352.4,49.9
							c9.8-3.2,17.1-5.7,21.9-7.5c0.5-0.5,0.1-0.8-1-0.8c-3.9,1.7-8.5,3.3-13.6,4.7c0,0,2.6-1.7,7.7-5.2c0.2-0.4,0-0.6-0.7-0.6
							c-1.8,1.2-5,3.3-9.5,6.1c-4.3,1.6-6.5,2.4-6.5,2.4C350.1,49.7,350.7,49.9,352.4,49.9z M363.9,40c1.1-0.2,1.4,0,0.9,0.7
							c0,0-5.3,1.6-15.8,4.9c0.3,0-1.3,0.4-4.8,1.3c-0.8,0-0.9-0.2-0.3-0.9c2.7-0.8,4-1.2,4-1.2c4.9-2.4,8-4.1,9.4-5.2
							c0.8-0.2,1.1,0,0.9,0.6c-3.6,2-5.3,3-5.3,3C358.1,41.6,361.8,40.6,363.9,40z M353.5,39.1c2-0.2,2.5,0,1.7,0.6
							c0,0-6.1,1.5-18.4,4.6c-1.1,0-1.8-0.2-2.3-0.7c3.2-0.6,6.3-1.5,9.4-2.7c2.1-1,4.3-1.7,6.5-2l-4.5,2l0,0l0,0l0,0l0,0
							L353.5,39.1z M430.9,72c0.6,0.3,1.8-0.2,2.3-0.9c0.5-0.4-4.3-4-5.2-4.7c-25.9-19.9-50.9-29.2-74.9-28
							c24.6,0.6,48.5,10.2,71.9,28.7C426,68,429.9,71.2,430.9,72z M401.8,86.5c-29-24.7-55.5-39.5-79.6-44.6
							c-20.5-4.3-41.6-1.3-56.1,8.4c37.1-19,81.4-6.8,132.8,36.7C400,88.1,401,88.1,401.8,86.5z M422.7,73.2
							c-3.4,2.4-5.1,3.6-5.1,3.6s-5.5,2-16.4,6c-1.3-0.6-0.8-1.5,1.6-2.7c5-4,9.9-8.2,14.5-12.8c0,0-7.7,3-23.1,9
							c-1.4,0.3-1.9-0.1-1.6-1.2c0,0,1.2-0.7,3.6-2.2c0,0,4.1-4.1,12.4-12.4c-3.2,1.7-11.1,4.6-23.6,8.9c-1.6,0-2-0.4-1.3-1.1
							c5.7-4,11.1-8.8,16.3-14.2c0,0-7.6,3.4-22.7,10.2c-1.2,0.4-1.8,0.1-1.8-0.7c4.5-3,9.9-7.8,16.3-14.5c0,0-7.8,3.3-23.3,9.9
							c-1.6,0.3-2.1,0-1.5-1c1.7-0.4,3.5-1.2,5.2-2.3c0,0,3.9-3.3,11.6-9.9c1-0.6,1.4-0.5,1.3,0.3c-5.3,5.3-8.1,7.9-8.2,7.6
							c7.8-2.9,12.7-4.7,14.7-5.6c0.9,0,1.3,0.3,1,0.8c0.9,0.1,1.2,0.4,0.9,0.8c-3.3,3.2-7.1,6.8-11.5,10.6
							c12.5-5.2,18.7-7.8,18.7-7.8c1.1-0.1,1.6,0.2,1.5,0.9c-2.8,4.2-8,9.1-12,12.1c8-2.2,15.3-5.4,19.9-7.5
							c1.5,0.3,2.2,0.8,2.2,1.6c-7.5,7.1-11.2,10.7-11.2,10.7c11.9-3.8,17.9-5.6,17.9-5.6c1.9,0.1,2.6,0.7,2.2,1.6
							c-8.6,7.6-12.9,11.4-12.9,11.4C417.9,74.7,422.7,73.2,422.7,73.2z"/>
					</defs>
					<clipPath id="SVGID_00000111167798069681750670000011580304472072056980_">
						<use xlink:href="#SVGID_00000015329016451438642520000013317626354098334855_"  style="overflow:visible;"/>
					</clipPath>
					
						<linearGradient id="SVGID_00000128474441741529644220000014261188315292838559_" gradientUnits="userSpaceOnUse" x1="855.9144" y1="-3965.4741" x2="856.2673" y2="-3965.4741" gradientTransform="matrix(-13.2097 -137.6123 -472.5646 45.3626 -1862283.25 297760.2188)">
						<stop  offset="0" style="stop-color:#B3B3B3"/>
						<stop  offset="1" style="stop-color:#FFFFFF"/>
					</linearGradient>
					
						<polygon style="clip-path:url(#SVGID_00000111167798069681750670000011580304472072056980_);fill:url(#SVGID_00000128474441741529644220000014261188315292838559_);" points="
						439.2,87.6 432.2,15.4 260.7,31.8 267.6,104.1 					"/>
				</g>
			</g>
		</g>
	</g>
	<path class="st8" d="M473.5,226.5c-4.9,3.8-7.3,5.6-7.3,5.6s-2.2-6.6-6.7-19.7c-0.7-1.3-0.5-2.4,0.7-3.4
		c60.9-38.6,91.3-57.9,91.3-57.9c12.5,23,18.7,34.5,18.7,34.5c-3.8,3.1-5.7,4.7-5.7,4.7c-13.3-21.1-19.9-31.7-19.9-31.7
		c-51.8,33.4-77.8,49.8-78.2,49C471.2,220.2,473.5,226.5,473.5,226.5 M563.8,195.4c2.3,16.2,2,25.7-0.9,28.4
		c-8.4,8.5-25.9,21.5-52.3,39c-4.9,3.6-9.3,5.4-13,5.2c-12.3-6-21-14.3-26-25c16.5-17.6,37.4-34.5,62.9-50.4
		c-15.9,7.8-38,23-66.5,45.7c0,0-0.4-0.8-1.2-2.4c24.9-21.4,57.5-42.9,86.9-57.5C560.5,189.7,563.8,195.4,563.8,195.4z M492.7,90.4
		c0,0-22.2,12.7-64,36.7l19.9,29.8l-7.3,4.7c0,0-7-10.2-21.1-30.6c-0.7-1.6-0.3-2.9,1.2-4c0,0,24.5-13.7,73.5-41.1
		c1.3-0.6,2.4-0.3,3.4,0.8c12.2,16.4,19.2,25.6,21,27.7c-3.7,2.4-5.5,3.6-5.5,3.6C499.7,99.6,492.7,90.4,492.7,90.4z M482.3,89.6
		l7.5-4.8c0,0-7.3-8.6-22-25.8c-1.3-1.2-3.8-0.8-7.3,1.2c0,0-21.1,11.2-63.2,33.7c-1.2,1.3-1.3,2.7-0.3,4.2
		c14.3,18.4,21.4,27.6,21.4,27.6c3.4-2.4,5.1-3.6,5.1-3.6c-13.3-19.4-20-29.1-20-29.1c38.4-20.6,57.6-30.9,57.6-30.9L482.3,89.6z
		 M539.5,154l8.7-5c0,0-7.2-10.3-21.5-30.9c-1.5-1.9-3.4-2.2-5.4-0.8c0,0-26.3,15.7-78.9,47.1c-1.7,1.6-2.1,3.2-1.3,5
		c13.7,23.3,20.6,35,20.6,35c4.5-2.7,6.8-4,6.8-4c-13.5-22.9-20.9-35.6-20.9-35.6c47.3-28.1,70.9-42.2,70.9-42.2
		C532,142.8,539.5,154,539.5,154z"/>
	<path class="st2" d="M235.6,346.9l5.4-2.6l8,12.1l-14.2,14.9L235.6,346.9z M259.1,347.1l-5.4-7.5l19.8-8L259.1,347.1z M322,368.8
		l-1.9-12l18-6.2L322,368.8z M123.6,319.4l1.3-28.6l-44,44.8L123.6,319.4z M45.5,371.6l-21.3-6.5l83.3-91.6l-48.3,17.7v-11.7
		l76.7-26.8c13.2,4.6,19.8,6.9,19.8,6.9c-7.2,5.3-10.7,8-10.7,8l-1,44l80.3-30.5l14.9,3.5l-1.4,29.5l10.4,14.9l57.5-23.6l17.7,8.7
		l-8.3,8l3.8,23.6l45.6-18.9l17.1,0.2l6.2,2.8l-5.5,9l8.3,15.6l33.6-20.9l15.6,6.3l-3.8,9.4l26.3-6.6l84.2-6.2l46.6-27.9l5.8,16.4
		l38,44.1l-15.2-1.1L606.1,353l4.8,19H306.1l-4.5-36l-28.4,30.9l-4.2,5.2h-68.6v-29.4l-18.6,29.4h-17.2l36.9-55.8l5.2-14.9
		l-13.5,4.5l-49.4,18.7l-1,47.5h-21.6l1.8-39.6l-61.8,23.4L45.5,371.6z"/>
	<path class="st9" d="M135.8,321.6l76.8-30.1c0,0,0.6,0.3,1.7,1c2-2.3,2.4-4.2,1.4-5.7l-79.7,31L135.8,321.6z M72.5,342.6
		c0,0,3.3,2.6,12.7-1.1l38-14.9l0.2-3.8L72.5,342.6z M127.7,261.1c1.4,3,3.6,4.8,6.6,5.4c0,0,2-0.2,5.9-0.5c-3.3-0.8-6-2.5-8.1-5
		l-2.6-3.1l-86.3,30C99.6,270,127.7,261.1,127.7,261.1z M44,358c0,0,25.3-28.1,75.1-83.4c1.1-3.5-1.2-4.4-6.9-2.6
		c-27.9,31-49.3,53.4-62.9,69.8C43.3,348.9,43.4,354.9,44,358z M179.8,355.3c0,0,9.1-13.6,33.7-50.6c0,0,0.1-2.2,0.2-6.6
		c1.8-2.1,3.3-5.3,4.5-9.4c2-0.3,2.9,0.9,2.8,3.5c-2.1,36.6-3.1,65.9-3.1,65.9c0-21.9-0.7-44.4-1.9-45.6c-10.7,15-15.7,22.1-18,25.4
		C194.2,343.1,184.1,354.7,179.8,355.3z M255.7,365.5l-1,0.9h-11.2l7.4-7.5L255.7,365.5z M291.9,324.6c0.1,1.3,0,3.2-0.3,5.9
		c-8,9.2-20,18.9-29.4,18.6l18.8-20.3C288.1,325.8,291.7,324.4,291.9,324.6z M251.1,333.8c-0.9-1.9-1.3-2.9-1.3-2.9
		c33-13.4,49.6-20.1,49.6-20.1c2.1-0.1,4.5,1.1,7,3.6c-2.5,3-3.7,4.5-3.7,4.5c-0.9-2.8-2.2-4-4-3.4
		C266.9,327.7,251.1,333.8,251.1,333.8z M319.9,348.7c29.6-11.9,42.8-17.5,42.8-17.5c4.1-2.1,7.3-1.9,9.5,0.7c-0.7,2.7-1,4-1,4
		c-2.2-2.4-4.4-3.5-6.6-3.1c-9,3.7-16.6,6.8-22.9,9.5C337.5,343.9,324.7,349.1,319.9,348.7z M312.9,358c-2.2,0-7-16.2-8.3-29.7
		c1.1-6.7,2.4-8.9,4-6.6C311.7,348.4,312.9,358,312.9,358z M336.8,358c1.7-2,9.7-10.9,9.7-10.9c9.7-4,14.6-6.1,14.6-6.1
		c0.5,2.6-0.8,5.5-3.8,8.8C351.3,355.6,346.8,358,336.8,358z M375.2,339.8c-1-3.7-8.6,8.3-13.3,17.6c6.2,2.9,15.8-9.9,15.9-10.2
		C377.8,347.3,377,344.8,375.2,339.8z M393.3,357.2c19.2-12.2,27-17.2,27-17.2c3.8-0.9,7.1,0.1,9.9,3.1c-3,3-4.5,4.5-4.5,4.5
		c0.5-3.6-0.8-4.9-3.8-4c-6.7,4.1-12.3,7.5-16.6,10.1C399.3,357.4,397.7,357.5,393.3,357.2z M494.7,353c-8.9,5.8-16,10.3-21.4,13.5
		h-8.2l0.3-0.3c16.1-10.1,24.1-15.1,24.1-15.1C494.8,351,496.5,351.7,494.7,353z M465.7,349.1c-13.5,8.8-23,14.6-28.4,17.4h-4.7
		c0.7-1,1.9-2.4,3.7-4.2c16.1-10.1,24.1-15.1,24.1-15.1C465.8,347.1,467.5,347.8,465.7,349.1z M592.4,320.9
		c-2.2,2.6,1.8,15.8,12,39.5C604.4,360.4,600.4,347.3,592.4,320.9z M590.9,360.3c5,3.9,7.5,5.9,7.5,5.9s-4.2-11.7-12.5-35.2
		C581.9,331.9,583.5,341.6,590.9,360.3z M572.3,340.5c-0.5,13.3,2.8,21.9,9.8,25.9h1.1L572.3,340.5z M518.2,351.8
		c-1.5,2-8.5,6.9-20.9,14.7h-1.9C507.9,355.3,515.5,350.4,518.2,351.8z M124.9,353.6c-0.1,3.5,0.7-21,2.5-71.8
		c0.9-6.6,3.3-10.8,7.3-12.5c-1.5,34.5-2,47.5-2.5,60.3C131.7,340.8,128.6,352.7,124.9,353.6z"/>
	<g>
		<g>
			<g>
				<g>
					<defs>
						<path id="SVGID_00000039105331992452876620000017613638332569744806_" d="M581.8,299.6c0.6-2.4,1-4.9,1.1-7.6
							c-0.9,0.9-2.1,1.9-3.4,3c1.3,0.4,1.8,1,1.7,1.8c-0.9,0.5-6.1,5.6-15.6,15.4L581.8,299.6z M529.2,302.1L529.2,302.1
							L529.2,302.1L529.2,302.1z M533.3,313.4c0.1-3.9,0.1-6.8-0.1-8.6c-0.2-1.4-1.4-2.3-3.6-2.6l0,0c27.3-19.9,43-31.4,47.2-34.4
							c1.1-0.8,2.3-0.9,3.4-0.5c0.8,3,1.4,6,1.9,8.7l-28.3,21.2c9.9-9.9,18.2-19.1,22.1-23.4c2.7-2.9,3.3-4.1,2.3-4.4
							c-1-0.6-2.1-0.2-3.4,1.2c-22.8,24.8-34.1,37.3-34.1,37.3L533.3,313.4z M533.5,327.3c0.5-2.4,0.7-4.5,0.4-6.3
							c-0.3-0.5-1.1-1-2.3-1.2c-0.5-0.2-0.8-0.5-0.9-0.8l49.7-37.5c1.1-0.1,1.9,0.1,2.5,0.6c0.2,2.3,0.3,4.5,0.3,6.7l-25.2,19
							c0.2,0.4,7.8-7.2,22.8-22.9c-0.3-0.8-1.4-0.7-3,0.2c-20.9,20.1-30.7,30-29.6,29.6L533.5,327.3z M595.4,244.9
							c0.9,1.1,1.1,1.8,0.6,2.1C594.8,246,594.6,245.3,595.4,244.9z M526.4,289.2c0.5,6.1,0.8,9.1,0.8,9.1s0.2,5.6,0.7,16.7
							c0,0-0.7,4.2-2.2,12.7c-0.3,1.9-0.4,2.8-0.4,2.8c3.3-0.1,5.8-0.3,7.5-0.7c0.9-0.1,1.6-0.3,2.1-0.7c27-21,40.5-31.5,40.5-31.5
							C555.9,317.8,546.1,328,546,328c4.4-0.7,8.3-2,11.6-4c11.4-9.2,17.1-13.9,17.1-13.9c-1,3.7-5.6,8.1-13.8,13.4
							c-8.5,5-22.2,8.3-41.2,10.1c-9.2,0.3-18.8-0.1-28.2-0.9c-56.6-4.8-143.2-27.4-259.6-67.9c205.8,74.9,323.1,90.1,351.8,45.6
							c7.9-15.6,7.7-35.3-0.9-59.1c0-0.8,0.8-1.1,2.5-1.1c-3-2.1-5.8-1.8-7.7,0.1c-2.2,2.3-1.1,5.9-0.2,8.5c0.5,1.4,0.9,2.9,1.3,4.3
							l-31.9,23c10.9-12,16.2-18.1,16.2-18.1c1-1.4,0.1-1.4-2.9,0c-13.3,15.3-20,22.9-20,22.9l-8.9,7l-0.3-5.8
							C529.5,290.7,528,289.7,526.4,289.2z"/>
					</defs>
					<clipPath id="SVGID_00000016791852003880987910000015239870479489498541_">
						<use xlink:href="#SVGID_00000039105331992452876620000017613638332569744806_"  style="overflow:visible;"/>
					</clipPath>
					
						<linearGradient id="SVGID_00000016791134415048601680000005077667109810079164_" gradientUnits="userSpaceOnUse" x1="888.0057" y1="-3972.0439" x2="888.1768" y2="-3972.0439" gradientTransform="matrix(100.2761 454.3275 1143.502 -252.3862 4453406.5 -1405642.625)">
						<stop  offset="0" style="stop-color:#B3B3B3"/>
						<stop  offset="0.61" style="stop-color:#D9D9D9"/>
						<stop  offset="1" style="stop-color:#FFFFFF"/>
					</linearGradient>
					
						<polygon style="clip-path:url(#SVGID_00000016791852003880987910000015239870479489498541_);fill:url(#SVGID_00000016791134415048601680000005077667109810079164_);" points="
						208.8,250 248.9,431.7 619.6,349.9 579.5,168.2 					"/>
				</g>
			</g>
		</g>
	</g>
	<path class="st11" d="M516.4,215.3c3.3-5.2,24.3-19.9,37-29.5c-25.8,14.4-62.2,41-74.7,56.5c6,8.8,14.3,16.7,19.9,19
		c8.9-1.4,26.7-12.7,49.3-30.7c-9.9,6.4-15.8,8.1-19.4,8.4C522.4,229.7,517.7,220.8,516.4,215.3"/>
	<path class="st0" d="M581.4,258.7c11.8,27.2,5.3,54.1-12.8,62.4C585.4,309.4,589.4,291.3,581.4,258.7 M526.5,290.5
		c3.5,25.7,3.3,37,0.7,38.5C528.1,324,527.3,303,526.5,290.5z"/>
	<g>
		<g>
			<g>
				<g>
					<defs>
						<path id="SVGID_00000018216411523961896060000016512336566703721345_" d="M59.6,210.6c-2.3,6.7,1.8,9.7,7.2,11.7
							c113.4,40.9,187.3,65.2,258.1,86c152.6,44.4,239.1,48.4,259.5,12c-7.1,10.9-28.7,18.6-41.1,20.1
							C470.6,349,321.8,310.4,59.6,210.6"/>
					</defs>
					<clipPath id="SVGID_00000130605558047091023870000018297859965751985589_">
						<use xlink:href="#SVGID_00000018216411523961896060000016512336566703721345_"  style="overflow:visible;"/>
					</clipPath>
					
						<linearGradient id="SVGID_00000040546829308564230700000002765134289016690842_" gradientUnits="userSpaceOnUse" x1="880.678" y1="-3976.0247" x2="880.9668" y2="-3976.0247" gradientTransform="matrix(1146.3606 234.8969 120.0324 -585.7904 -532126.625 -2535727.5)">
						<stop  offset="0" style="stop-color:#CCCCCC"/>
						<stop  offset="1" style="stop-color:#FFFFFF"/>
					</linearGradient>
					
						<polygon style="clip-path:url(#SVGID_00000130605558047091023870000018297859965751985589_);fill:url(#SVGID_00000040546829308564230700000002765134289016690842_);" points="
						28.5,350.7 563.1,460.3 613,216.5 78.5,107 					"/>
				</g>
			</g>
		</g>
	</g>
	<path class="st0" d="M366.2,287.9c35.6,4.9,87.1,3.3,125.9,1.4c-51.7-0.3-98.1-0.2-122.7-3.1c-16.3-2.8-12.9-8,10.1-15.6
		c3.6-0.9-32.6-0.5-102.6-1.8c-1.7,1.2,91.6,3.1,92.5,3.4C352.8,279.4,352.2,284.1,366.2,287.9"/>
	<path class="st0" d="M356.2,274.7c-8.8,5.3-5.6,10.6,9.7,15.9C347.1,285.1,343.8,279.8,356.2,274.7"/>
</g>
<rect x="710.6" y="180.4" class="st13" width="1796.7" height="311.7"/>
<text transform="matrix(1 0 0 1 710.5854 366.1606)" class="st14"><tspan x="0" y="0" class="st15 st16 st17">T12</tspan><tspan x="420.7" y="0" class="st18 st16 st17"> EXPERIENCE</tspan></text>
</svg>
