<?xml version="1.0" encoding="utf-8"?>
<!-- Generator: Adobe Illustrator 16.0.0, SVG Export Plug-In . SVG Version: 6.00 Build 0)  -->
<!DOCTYPE svg PUBLIC "-//W3C//DTD SVG 1.1//EN" "http://www.w3.org/Graphics/SVG/1.1/DTD/svg11.dtd">
<svg version="1.1" id="Layer_1" xmlns="http://www.w3.org/2000/svg" xmlns:xlink="http://www.w3.org/1999/xlink" x="0px" y="0px"
	 width="67.729px" height="67.733px" viewBox="0 0 67.729 67.733" enable-background="new 0 0 67.729 67.733" xml:space="preserve">
<g>
	<path fill="#FFFFFF" d="M52.029,53.036c-3.496,0-6.341,2.842-6.341,6.338s2.845,6.342,6.341,6.342s6.342-2.846,6.342-6.342
		S55.525,53.036,52.029,53.036"/>
	<g>
		<path fill="#FFFFFF" d="M57.812,9.921C51.417,3.526,42.911,0,33.864,0S16.312,3.526,9.917,9.921C3.519,16.315,0,24.821,0,33.868
			c0,9.043,3.519,17.549,9.917,23.943c6.395,6.398,14.9,9.922,23.947,9.922c3.266,0,6.5-0.47,9.615-1.389l0.972-0.288l-0.594-0.821
			c-0.84-1.169-1.411-2.467-1.695-3.859l-0.155-0.756l-0.742,0.203c-2.406,0.662-4.896,0.996-7.401,0.996
			c-15.411,0-27.954-12.54-27.954-27.951c0-15.415,12.543-27.954,27.954-27.954s27.955,12.539,27.955,27.954
			c0,5.653-1.691,11.105-4.885,15.768l-0.439,0.635l0.666,0.391c1.215,0.719,2.293,1.705,3.11,2.855l0.59,0.826l0.583-0.826
			c4.113-5.758,6.285-12.551,6.285-19.648C67.729,24.821,64.206,16.315,57.812,9.921"/>
		<path fill="#FFFFFF" d="M27.554,47.194c12.318,0,19.053-10.207,19.053-19.053c0-0.222,0-0.442-0.006-0.658
			c-0.003-0.127,0.054-0.248,0.157-0.324c0.877-0.654,1.676-1.418,2.375-2.266c0.244-0.297-0.054-0.734-0.419-0.613
			c-0.338,0.111-0.683,0.209-1.034,0.295c-0.381,0.094-0.641-0.381-0.358-0.654c0.518-0.502,0.955-1.086,1.289-1.732
			c0.17-0.33-0.18-0.688-0.513-0.525c-0.972,0.476-2.01,0.838-3.099,1.074c-0.13,0.027-0.265-0.016-0.359-0.11
			c-1.212-1.214-2.886-1.956-4.739-1.956c-3.694,0-6.694,2.998-6.694,6.693c0,0.357,0.025,0.709,0.081,1.05
			c0.04,0.247-0.165,0.464-0.414,0.444c-5.156-0.395-9.73-2.842-12.922-6.528c-0.183-0.212-0.524-0.163-0.643,0.091
			c-0.4,0.859-0.628,1.822-0.628,2.832c0,1.842,0.745,3.519,1.957,4.729c0.281,0.28,0.016,0.746-0.369,0.65
			c-0.576-0.143-1.123-0.363-1.63-0.644v0.083c0,2.689,1.579,4.998,3.862,6.068c0.369,0.174,0.247,0.73-0.161,0.736
			c-0.03,0-0.061,0-0.091,0c-0.214,0-0.424-0.01-0.633-0.031c-0.292-0.028-0.512,0.266-0.396,0.533
			c0.885,2.045,2.762,3.553,5.022,3.934c0.342,0.057,0.438,0.509,0.149,0.701c-2.14,1.422-4.71,2.252-7.475,2.252
			c-0.005,0-0.011,0-0.017,0c-0.404-0.001-0.544,0.537-0.188,0.729C21.339,46.399,24.357,47.194,27.554,47.194"/>
	</g>
</g>
</svg>
